<svg xmlns="http://www.w3.org/2000/svg" xmlns:xlink="http://www.w3.org/1999/xlink" width="53.276" height="27.56" viewBox="0 0 53.276 27.56"><defs><style>.a{clip-path:url(#a);}.b{clip-path:url(#b);}</style><clipPath id="a"><path d="M104.129,142H118.2v14.668h-14.07Zm0,0" transform="translate(-104.129 -142)"/></clipPath><clipPath id="b"><path d="M121,123.984h14.935v15.4H121Zm0,0" transform="translate(-121 -123.984)"/></clipPath></defs><g transform="translate(-104.129 -123.984)"><g transform="translate(128.119 125.621)"><g transform="translate(0)"><path d="M10.952-55.418A7.152,7.152,0,0,0,3.813-48.3v3.537a7.088,7.088,0,0,0,7.14,7.315,6.556,6.556,0,0,0,5.633-2.533,7.087,7.087,0,0,0,1.267-2.4,10.724,10.724,0,0,0,.241-1.528c.065-.611.088-.982.088-1.135,0-.284,0-.568-.023-.9,0-.283-.021-.48-.021-.808a.607.607,0,0,0-.677-.7H11.651a.623.623,0,0,0-.7.7V-45.4a.734.734,0,0,0,.7.7h3.755l-.109.851a4.423,4.423,0,0,1-.327,1.267,4.3,4.3,0,0,1-4.018,2.336,4.273,4.273,0,0,1-3.036-1.244,4.3,4.3,0,0,1-1.265-3.276V-48.3a4.305,4.305,0,0,1,4.3-4.28,4.2,4.2,0,0,1,3.821,2.4l-.023-.021a.676.676,0,0,0,.634.415h1.572c.589,0,.873-.415.677-.873A7.322,7.322,0,0,0,10.952-55.418Zm0,0" transform="translate(-3.813 55.418)"/></g></g><g class="a" transform="translate(104.129 129.762)"><path d="M116.889,144.5l-4.669-2.268a2.949,2.949,0,0,0-2.28,0l-4.67,2.268a2.236,2.236,0,0,0-1.14,1.839v5.463a2.454,2.454,0,0,0,1.1,1.921l4.753,2.747a2.436,2.436,0,0,0,2.2,0l4.752-2.747a2.451,2.451,0,0,0,1.1-1.921v-5.463A2.234,2.234,0,0,0,116.889,144.5Zm-5.809.178c.61,0,1.1.288,1.1.643s-.495.643-1.1.643-1.106-.288-1.106-.643S110.468,144.683,111.079,144.683Zm-4.456,8.2a.475.475,0,0,1-.213.05,1.125,1.125,0,0,1-.883-.793c-.243-.594-.147-1.223.215-1.407a.467.467,0,0,1,.213-.05,1.124,1.124,0,0,1,.882.793C107.082,152.069,106.985,152.7,106.623,152.882Zm0-3.535a.475.475,0,0,1-.213.05,1.125,1.125,0,0,1-.883-.793c-.243-.594-.147-1.223.215-1.407a.467.467,0,0,1,.213-.05,1.122,1.122,0,0,1,.882.793C107.082,148.532,106.985,149.163,106.623,149.347Zm3.158,5.3a.467.467,0,0,1-.213.05,1.124,1.124,0,0,1-.882-.793c-.244-.594-.148-1.223.214-1.407a.476.476,0,0,1,.214-.05,1.125,1.125,0,0,1,.882.793C110.24,153.837,110.144,154.466,109.782,154.65Zm0-3.535a.467.467,0,0,1-.213.05,1.124,1.124,0,0,1-.882-.793c-.244-.594-.148-1.223.214-1.407a.476.476,0,0,1,.214-.05,1.123,1.123,0,0,1,.882.793C110.24,150.3,110.144,150.93,109.782,151.114Zm3.691,2.792a1.125,1.125,0,0,1-.883.793.471.471,0,0,1-.213-.05c-.362-.184-.459-.813-.214-1.407a1.122,1.122,0,0,1,.882-.793.471.471,0,0,1,.213.05C113.619,152.684,113.715,153.313,113.472,153.907Zm0-3.535a1.125,1.125,0,0,1-.883.793.471.471,0,0,1-.213-.05c-.362-.184-.459-.813-.214-1.407a1.12,1.12,0,0,1,.882-.793.471.471,0,0,1,.213.05C113.619,149.149,113.715,149.778,113.472,150.371Zm3.158,1.768a1.122,1.122,0,0,1-.882.793.471.471,0,0,1-.213-.05c-.362-.184-.459-.813-.215-1.407a1.125,1.125,0,0,1,.883-.793.471.471,0,0,1,.213.05C116.778,150.916,116.875,151.545,116.631,152.139Zm0-3.535a1.122,1.122,0,0,1-.882.793.471.471,0,0,1-.213-.05c-.362-.184-.459-.814-.215-1.407a1.123,1.123,0,0,1,.883-.793.471.471,0,0,1,.213.05C116.778,147.381,116.875,148.01,116.631,148.6Zm.465-2.695-5.7,3.195v6.721a.316.316,0,1,1-.631,0v-6.7l-5.747-3.267a.324.324,0,0,1-.123-.437.314.314,0,0,1,.43-.125l5.734,3.261,5.733-3.213a.311.311,0,0,1,.428.125A.324.324,0,0,1,117.1,145.909Zm0,0" transform="translate(-104.129 -142.005)"/></g><g class="b" transform="translate(109.54 123.984)"><path d="M133.968,127.5a3.03,3.03,0,0,0-1.612-1.641l-4.91-1.766a1.738,1.738,0,0,0-.589-.1,2.181,2.181,0,0,0-1.5.576l-3.821,3.887a2.285,2.285,0,0,0-.536,1.024l.125-.06a3.307,3.307,0,0,1,1.413-.292c.046,0,.093,0,.14,0a.862.862,0,0,1,.6-.329.464.464,0,0,1,.154.026.618.618,0,0,1,.353.519c.058.023.113.046.165.073l1.994.968a1.069,1.069,0,0,1,.808-.621.463.463,0,0,1,.154.026c.342.124.462.646.294,1.205l.823.4.162-.167L126.475,125a.322.322,0,0,1,.218-.4.317.317,0,0,1,.391.222l1.731,6.3,6.149,1.784a.321.321,0,0,1,.217.4.315.315,0,0,1-.3.233c-.026,0-5.032-1.448-6.085-1.753a2.788,2.788,0,0,1,.9.921.557.557,0,0,1,.406.336.581.581,0,0,1-.059.465,2.358,2.358,0,0,1,.085.605V139.1a2.332,2.332,0,0,0,1.288-.6l3.821-3.887a2.264,2.264,0,0,0,.472-2.121Zm-7.756.227a1.17,1.17,0,0,1-.935.758.533.533,0,0,1-.154-.023c-.37-.115-.481-.629-.249-1.149a1.171,1.171,0,0,1,.935-.758.489.489,0,0,1,.154.024C126.332,126.689,126.444,127.2,126.212,127.723Zm5.525,2.237a.464.464,0,0,1-.341.128,1.462,1.462,0,0,1-.952-.486c-.455-.462-.613-1.051-.353-1.315a.465.465,0,0,1,.342-.128,1.454,1.454,0,0,1,.951.486C131.838,129.107,132,129.7,131.737,129.96Zm.993,5.146a1.654,1.654,0,0,1-.609.123.693.693,0,0,1-.708-.376c-.13-.376.246-.872.842-1.107a1.665,1.665,0,0,1,.61-.123.693.693,0,0,1,.708.376C133.7,134.375,133.328,134.871,132.73,135.107Zm0,0" transform="translate(-121.003 -123.99)"/></g><g transform="translate(106.099 148.617)"><g transform="translate(0 0)"><path d="M.874-6.521A1.411,1.411,0,0,1,.453-7.568,1.393,1.393,0,0,1,.879-8.615a1.428,1.428,0,0,1,1.037-.416,1.482,1.482,0,0,1,.827.236,1.3,1.3,0,0,1,.521.666H2.573a.682.682,0,0,0-.656-.376.842.842,0,0,0-.636.256.955.955,0,0,0-.241.682.947.947,0,0,0,.241.677.8.8,0,0,0,.6.256.832.832,0,0,0,.556-.17.742.742,0,0,0,.251-.471H1.741v-.436H3.309v.436a1.384,1.384,0,0,1-.461.817,1.371,1.371,0,0,1-.967.351A1.4,1.4,0,0,1,.874-6.521Zm0,0" transform="translate(-0.453 9.031)"/></g></g><g transform="translate(109.611 148.647)"><path d="M2.371-6.071l-.18-.536H1.073l-.18.536H.281L1.294-8.937h.682L2.982-6.071ZM1.228-7.048H2.04L1.634-8.241Zm0,0" transform="translate(-0.281 8.938)"/></g><g transform="translate(113.131 148.658)"><path d="M4.07-8.906V-6.05H3.5v-1.8l-.782,1.8H2.306l-.777-1.8v1.8H.953V-8.906H1.6l.917,2.115.917-2.115Zm0,0" transform="translate(-0.953 8.906)"/></g><g transform="translate(117.278 148.647)"><g transform="translate(0)"><path d="M2.607-8.937V-8.5H1.529v.752h.952V-7.3H1.529v.792H2.607v.441H.953V-8.937Zm0,0" transform="translate(-0.953 8.938)"/></g></g><g transform="translate(119.876 148.617)"><g transform="translate(0 0)"><path d="M1.753-8.57a.426.426,0,0,0-.281.09.287.287,0,0,0-.11.241.354.354,0,0,0,.08.246.527.527,0,0,0,.21.135c.086.03.182.059.286.085a2.824,2.824,0,0,1,.316.09,1.412,1.412,0,0,1,.286.13.557.557,0,0,1,.21.226.767.767,0,0,1,.08.361.8.8,0,0,1-.281.606A1.068,1.068,0,0,1,1.8-6.1a1.192,1.192,0,0,1-.752-.22.733.733,0,0,1-.286-.616h.616a.373.373,0,0,0,.426.376.444.444,0,0,0,.311-.1.351.351,0,0,0,.115-.271.312.312,0,0,0-.15-.271,1.05,1.05,0,0,0-.366-.145Q1.5-7.4,1.282-7.473a.808.808,0,0,1-.366-.241.69.69,0,0,1-.15-.466A.756.756,0,0,1,1.046-8.8a1.106,1.106,0,0,1,.727-.236,1.182,1.182,0,0,1,.717.2.783.783,0,0,1,.3.616H2.154a.378.378,0,0,0-.125-.261A.4.4,0,0,0,1.753-8.57Zm0,0" transform="translate(-0.766 9.031)"/></g></g><g transform="translate(122.603 151.514)"><path/></g><g transform="translate(124.555 148.658)"><g transform="translate(0)"><path d="M.953-6.05V-8.906H2.722v.441H1.529v.747h.912v.446H1.529V-6.05Zm0,0" transform="translate(-0.953 8.906)"/></g></g><g transform="translate(127.196 148.658)"><g transform="translate(0)"><path d="M1.529-7.187V-6.05H.953V-8.906H2.005a1.072,1.072,0,0,1,.762.251.787.787,0,0,1,.271.606.863.863,0,0,1-.165.506.854.854,0,0,1-.511.321L3.088-6.05H2.4L1.72-7.187Zm0-1.278v.837h.476a.449.449,0,0,0,.331-.11.413.413,0,0,0,.115-.306.405.405,0,0,0-.115-.306.44.44,0,0,0-.331-.115Zm0,0" transform="translate(-0.953 8.906)"/></g></g><g transform="translate(130.111 148.617)"><g transform="translate(0 0)"><path d="M2.548-6.891a.953.953,0,0,0,.241-.682.939.939,0,0,0-.241-.677.827.827,0,0,0-.631-.256.842.842,0,0,0-.636.256.955.955,0,0,0-.241.682.947.947,0,0,0,.241.677.842.842,0,0,0,.636.256A.827.827,0,0,0,2.548-6.891ZM1.916-6.1A1.441,1.441,0,0,1,.874-6.516,1.416,1.416,0,0,1,.453-7.568,1.393,1.393,0,0,1,.879-8.615a1.428,1.428,0,0,1,1.037-.416,1.42,1.42,0,0,1,1.037.416A1.4,1.4,0,0,1,3.38-7.568a1.41,1.41,0,0,1-.426,1.052A1.426,1.426,0,0,1,1.916-6.1Zm0,0" transform="translate(-0.453 9.031)"/></g></g><g transform="translate(133.907 148.658)"><path d="M4.07-8.906V-6.05H3.5v-1.8l-.782,1.8H2.306l-.777-1.8v1.8H.953V-8.906H1.6l.917,2.115.917-2.115Zm0,0" transform="translate(-0.953 8.906)"/></g><g transform="translate(137.749 151.514)"><path/></g><g transform="translate(139.701 148.658)"><g transform="translate(0)"><path d="M2.822-7.483a.739.739,0,0,1-.321.215,1.383,1.383,0,0,1-.5.08H1.529V-6.05H.953V-8.906H2.005a1.072,1.072,0,0,1,.762.251.762.762,0,0,1,.271.581A.894.894,0,0,1,2.822-7.483ZM1.529-7.628h.476a.449.449,0,0,0,.331-.11.413.413,0,0,0,.115-.306.405.405,0,0,0-.115-.306.44.44,0,0,0-.331-.115H1.529Zm0,0" transform="translate(-0.953 8.906)"/></g></g><g transform="translate(142.637 148.647)"><g transform="translate(0)"><path d="M2.607-8.937V-8.5H1.529v.752h.952V-7.3H1.529v.792H2.607v.441H.953V-8.937Zm0,0" transform="translate(-0.953 8.938)"/></g></g><g transform="translate(145.044 148.658)"><g transform="translate(0)"><path d="M1.219-6.05.172-8.906H.783l.782,2.28.782-2.28h.616L1.916-6.05Zm0,0" transform="translate(-0.172 8.906)"/></g></g><g transform="translate(148.4 148.647)"><g transform="translate(0)"><path d="M2.371-6.071l-.18-.536H1.073l-.18.536H.281L1.294-8.937h.682L2.982-6.071ZM1.228-7.048H2.04L1.634-8.241Zm0,0" transform="translate(-0.281 8.938)"/></g></g><g transform="translate(151.92 148.647)"><g transform="translate(0)"><path d="M2.827-8.937H3.4v2.866H2.827l-1.3-1.979v1.979H.953V-8.937h.576l1.3,1.984Zm0,0" transform="translate(-0.953 8.938)"/></g></g><g transform="translate(155.34 148.617)"><g transform="translate(0 0)"><path d="M1.753-8.57a.426.426,0,0,0-.281.09.287.287,0,0,0-.11.241.354.354,0,0,0,.08.246.527.527,0,0,0,.21.135c.086.03.182.059.286.085a2.824,2.824,0,0,1,.316.09,1.412,1.412,0,0,1,.286.13.557.557,0,0,1,.21.226.767.767,0,0,1,.08.361.8.8,0,0,1-.281.606A1.068,1.068,0,0,1,1.8-6.1a1.192,1.192,0,0,1-.752-.22.733.733,0,0,1-.286-.616h.616a.373.373,0,0,0,.426.376.444.444,0,0,0,.311-.1.351.351,0,0,0,.115-.271.312.312,0,0,0-.15-.271,1.05,1.05,0,0,0-.366-.145Q1.5-7.4,1.282-7.473a.808.808,0,0,1-.366-.241.69.69,0,0,1-.15-.466A.756.756,0,0,1,1.046-8.8a1.106,1.106,0,0,1,.727-.236,1.182,1.182,0,0,1,.717.2.783.783,0,0,1,.3.616H2.154a.378.378,0,0,0-.125-.261A.4.4,0,0,0,1.753-8.57Zm0,0" transform="translate(-0.766 9.031)"/></g></g><g transform="translate(145.156 125.926)"><g transform="translate(0)"><path d="M14.276-46.976c2.883-1.921,2.468-7.489-2.27-7.489H4.67a.723.723,0,0,0-.72.7L3.993-37.7a.684.684,0,0,0,.677.7H6.154c.677,0,.7-.415.7-.852v-4.868l5.72-3.166C12.988-46.124,13.512-46.473,14.276-46.976ZM6.853-51.561h5a.832.832,0,0,1,.873.722,1.817,1.817,0,0,1-.262,1.4,9.972,9.972,0,0,1-2.075,1.485c-1.114.677-2.423,1.376-3.537,1.966Zm0,0" transform="translate(-3.949 54.465)"/></g></g></g></svg>