<svg xmlns="http://www.w3.org/2000/svg" xmlns:xlink="http://www.w3.org/1999/xlink" width="985" height="875" viewBox="0 0 985 875">
  <defs>
    <clipPath id="clip-path">
      <path id="Path_258" data-name="Path 258" d="M14.4,59.93h66.44V162.417H14.4Zm0,0" transform="translate(-14.398 -59.93)"/>
    </clipPath>
    <clipPath id="clip-path-2">
      <path id="Path_260" data-name="Path 260" d="M186.039,59.93h66.44V162.417h-66.44Zm0,0" transform="translate(-186.039 -59.93)"/>
    </clipPath>
    <clipPath id="clip-path-3">
      <path id="Path_262" data-name="Path 262" d="M100,73H317.418V312.137H100Zm0,0" transform="translate(-100 -73)"/>
    </clipPath>
    <clipPath id="clip-path-4">
      <path id="Path_275" data-name="Path 275" d="M65.414,77H251.539V302.258H65.414Zm0,0" transform="translate(-65.414 -77)"/>
    </clipPath>
  </defs>
  <g id="Group_409" data-name="Group 409" transform="translate(0 -213)">
    <rect id="Rectangle_81" data-name="Rectangle 81" width="985" height="875" transform="translate(0 213)" fill="#002657"/>
    <g id="surface1" transform="translate(82.653 394.561)">
      <g id="Group_292" data-name="Group 292" transform="translate(84.016 136.936)">
        <g id="Group_291" data-name="Group 291">
          <path id="Path_245" data-name="Path 245" d="M49.615,45.755c.534,1.168-2.1,3.053-7.873,5.671q-8.607,3.878-9.408,2.135L12.45,9.791,1.975,14.6c-.967.4-2.269-.617-3.87-3.069a42.77,42.77,0,0,1-2.068-3.87,28.615,28.615,0,0,1-1.468-4c-.834-2.886-.767-4.537.2-4.938L32.734-18.566c.967-.434,2.3.584,4,3.069.667,1.168,1.3,2.435,1.935,3.8a38.115,38.115,0,0,1,1.6,4.07c.751,2.852.634,4.5-.334,4.938L29.732,1.985Zm0,0" transform="translate(6.011 18.663)" fill="#fff"/>
        </g>
      </g>
      <g id="Group_294" data-name="Group 294" transform="translate(133.429 116.188)">
        <g id="Group_293" data-name="Group 293" transform="translate(0)">
          <path id="Path_246" data-name="Path 246" d="M66.6,41.166q.525,1.551-8.607,4.871-9.083,3.278-9.608,1.735L40.849,27.02l-12.611,4.6,7.54,20.751q.525,1.551-8.541,4.871-9.083,3.278-9.608,1.735L-4.123-.67q-.651-1.927,8.407-5.2,9.083-3.328,9.742-1.4L21.7,13.876l12.611-4.6L26.7-11.746c-.317-.834.967-1.968,3.87-3.4,1.468-.667,2.953-1.268,4.47-1.8l4.671-1.535c3.153-.751,4.887-.7,5.2.133Zm0,0" transform="translate(4.166 19.015)" fill="#fff"/>
        </g>
      </g>
      <g id="Group_296" data-name="Group 296" transform="translate(198.974 101.479)">
        <g id="Group_295" data-name="Group 295" transform="translate(0)">
          <path id="Path_247" data-name="Path 247" d="M38.253,50.287q-13.011,3.4-23.487-2.936Q4.357,40.946.02,24.6T1.755-2.357Q7.835-12.966,20.9-16.436q13.136-3.453,23.353,2.669Q54.466-7.612,58.937,9.186,63.391,26,57.336,36.409,51.33,46.818,38.253,50.287ZM25.375,1.446A9.573,9.573,0,0,0,18.97,7.518q-1.952,4.8,0,12.21c1.334,4.9,3.286,8.407,5.872,10.542A9.619,9.619,0,0,0,40.054,26.2c1.234-3.153,1.2-7.206-.133-12.144Q37.969,6.65,33.916,3.448A9.334,9.334,0,0,0,25.375,1.446Zm0,0" transform="translate(1.781 17.683)" fill="#fff"/>
        </g>
      </g>
      <g id="Group_298" data-name="Group 298" transform="translate(260.307 85.85)">
        <g id="Group_297" data-name="Group 297" transform="translate(0)">
          <path id="Path_248" data-name="Path 248" d="M30.863-12.979q-.35-1.927,9.942-3.67,10.259-1.8,10.609.133l7.406,43.37a20.47,20.47,0,0,1-4.27,16.881q-5.88,7.281-18.015,9.341-12.16,2.077-20.818-2.869-8.682-5-10.476-15.68L-1.9-7.308q-.325-1.927,9.942-3.67,10.259-1.8,10.609.133l7.273,42.636a3.559,3.559,0,0,0,2.469,2.669,8.8,8.8,0,0,0,4.537.4,8.069,8.069,0,0,0,3.87-1.735,3.5,3.5,0,0,0,1.334-3.4Zm0,0" transform="translate(1.909 17.515)" fill="#fff"/>
        </g>
      </g>
      <g id="Group_300" data-name="Group 300" transform="translate(325.007 80.053)">
        <g id="Group_299" data-name="Group 299" transform="translate(0)">
          <path id="Path_249" data-name="Path 249" d="M38.621,30.86l-.934-12.944c-.1-.934.767-1.618,2.6-2.068a31.642,31.642,0,0,1,4.537-.8l3.737-.067c2.435.183,3.7.767,3.8,1.735L54.5,46.54q-1.751,1.6-7.406,3.336a63.623,63.623,0,0,1-13.145,2.4q-13.812,1.2-23.086-7.073Q1.581,36.949.122,19.584C-.712,9.709,1.356,1.469,6.394-5.17Q13.925-15.1,28.613-16.38a52.962,52.962,0,0,1,12.21.334c3.636.534,6.205,1.451,7.673,2.736.083.5.167,1.451.267,2.869A18.58,18.58,0,0,1,47.829-4.3a16.664,16.664,0,0,1-2.736,6.072c-1.068,1.385-1.868,2.1-2.4,2.135a3.032,3.032,0,0,1-1.8-.534A11.549,11.549,0,0,0,37.22,2.1a17.968,17.968,0,0,0-5.271-.4,12.85,12.85,0,0,0-9.275,4.671q-3.278,4.078-2.6,12.077c.434,5.338,2.018,9.308,4.737,11.877a11.628,11.628,0,0,0,9.074,3.4C37.17,33.463,38.755,32.512,38.621,30.86Zm0,0" transform="translate(0.058 16.578)" fill="#fff"/>
        </g>
      </g>
      <g id="Group_302" data-name="Group 302" transform="translate(386.776 78.661)">
        <g id="Group_301" data-name="Group 301">
          <path id="Path_250" data-name="Path 250" d="M53.236,49.855c0,1.068-3.236,1.6-9.675,1.6q-9.683,0-9.675-1.6V27.769H20.475V49.855c0,1.068-3.236,1.6-9.675,1.6q-9.683,0-9.675-1.6V-13.666c0-1.368,3.219-2.068,9.675-2.068,6.439,0,9.675.7,9.675,2.068V8.82H33.886V-13.533c0-.884,1.6-1.5,4.8-1.868,1.635-.133,3.269-.2,4.871-.2l4.871.2c3.2.367,4.8.984,4.8,1.868Zm0,0" transform="translate(-1.125 15.734)" fill="#fff"/>
        </g>
      </g>
      <g id="Group_304" data-name="Group 304" transform="translate(446.329 79.449)">
        <g id="Group_303" data-name="Group 303" transform="translate(0 0)">
          <path id="Path_251" data-name="Path 251" d="M29.8,52.066q-.15,1.927-9.608,1.2c-6.272-.5-9.375-1.385-9.275-2.669L14.656,2.624,3.18,1.757C2.112,1.674,1.462.139,1.245-2.847a29.445,29.445,0,0,1,0-4.2,32.265,32.265,0,0,1,.667-4.337q1-4.329,2.6-4.2l41.569,3.2q1.6.15,2,4.6a38.485,38.485,0,0,1-.133,4.337,32.855,32.855,0,0,1-.534,4.2c-.717,2.9-1.6,4.3-2.669,4.2l-11.21-.867Zm0,0" transform="translate(-1.17 15.595)" fill="#fff"/>
        </g>
      </g>
      <g id="Group_306" data-name="Group 306" transform="translate(491.704 84.142)">
        <g id="Group_305" data-name="Group 305" transform="translate(0)">
          <path id="Path_252" data-name="Path 252" d="M46.474-10.457c1.068.133,1.168,3,.334,8.607q-1.2,8.407-2.8,8.207L26.59,3.821,25.055,14.631,36.665,16.3c1.068.183,1.234,2.719.534,7.606-.717,4.9-1.568,7.273-2.535,7.139L22.92,29.31,19.651,52.129c-.133.884-1.4,1.3-3.8,1.268A54.469,54.469,0,0,1,9.842,53l-4.4-.867c-3.036-.8-4.5-1.651-4.4-2.535l9.074-62.787c.167-1.018.484-1.635.934-1.868a2.886,2.886,0,0,1,1.935-.2Zm0,0" transform="translate(-1.03 15.328)" fill="#fff"/>
        </g>
      </g>
      <g id="Group_308" data-name="Group 308" transform="translate(536.936 91.628)">
        <g id="Group_307" data-name="Group 307" transform="translate(0)">
          <path id="Path_253" data-name="Path 253" d="M43.93-6.955c.267-1.234,3.77-1.1,10.542.4,6.806,1.468,10.075,2.836,9.808,4.07l-9.541,42.9A20.208,20.208,0,0,1,44.464,54.5q-8.157,4.529-20.15,1.868Q12.3,53.688,6.1,45.823q-6.155-7.932-3.8-18.482l9.141-41.435q.45-1.852,10.609.4c6.806,1.518,10.042,2.9,9.742,4.137L22.512,32.679a3.507,3.507,0,0,0,1.268,3.4,8.867,8.867,0,0,0,4,2.068,8.556,8.556,0,0,0,4.27-.133,3.527,3.527,0,0,0,2.535-2.669Zm0,0" transform="translate(-1.645 14.93)" fill="#fff"/>
        </g>
      </g>
      <g id="Group_310" data-name="Group 310" transform="translate(591.467 105.905)">
        <g id="Group_309" data-name="Group 309" transform="translate(0)">
          <path id="Path_254" data-name="Path 254" d="M1.454,43.328,18.468-13.787q.525-1.927,9.875.867,9.333,2.8,8.807,4.737L23.739,36.789l14.079,4.2c1.1.317,1.468,1.985,1.068,5a35.241,35.241,0,0,1-1,4.337c-.45,1.468-.984,2.953-1.6,4.47-1.385,2.8-2.636,4.02-3.737,3.67L4.256,50.067a4,4,0,0,1-2.736-2.6A6.866,6.866,0,0,1,1.454,43.328Zm0,0" transform="translate(-1.167 14.575)" fill="#fff"/>
        </g>
      </g>
      <g id="Group_312" data-name="Group 312" transform="translate(629.845 118.718)">
        <g id="Group_311" data-name="Group 311" transform="translate(0 0)">
          <path id="Path_255" data-name="Path 255" d="M1.629,42.459,21.912-13.521q.726-1.927,9.875,1.4,9.133,3.353,8.407,5.271l-16.014,44.1,13.878,5c1.068.4,1.334,2.1.8,5.071-.4,1.418-.867,2.836-1.4,4.27-.5,1.468-1.068,2.936-1.735,4.4-1.568,2.7-2.869,3.87-3.937,3.47L3.964,49.4a4.043,4.043,0,0,1-2.535-2.8A6.767,6.767,0,0,1,1.629,42.459Zm0,0" transform="translate(-1.195 14.228)" fill="#fff"/>
        </g>
      </g>
      <g id="Group_314" data-name="Group 314" transform="translate(680.829 131.864)">
        <g id="Group_313" data-name="Group 313" transform="translate(0 0)">
          <path id="Path_256" data-name="Path 256" d="M46.539,3.68c1.6-1.735,5.755-1.1,12.477,1.868q2.527,1.151,5.8,3c2.169,1.251,3.136,2,2.869,2.269l-34.5,28.558L23.653,60.729c-.45.967-2.385.951-5.8-.067a41.454,41.454,0,0,1-4.938-1.8,39.773,39.773,0,0,1-4.6-2.335C5.271,54.69,4,53.256,4.5,52.188L13.778,31.37,11.376-14c-.1-.434,1.268-.234,4.07.6a59.326,59.326,0,0,1,6.873,2.469c7.206,3.2,10.676,6.038,10.409,8.474l-1.6,20.618Zm0,0" transform="translate(-4.397 14.224)" fill="#fff"/>
        </g>
      </g>
      <g id="Group_315" data-name="Group 315" transform="translate(14.398 225.39)" clip-path="url(#clip-path)">
        <path id="Path_257" data-name="Path 257" d="M53.788,61.589a2.023,2.023,0,0,0-2.5-1.535,2.082,2.082,0,0,0-1.535,1.535C46.1,75.234,37.091,100.422,17.274,115.852A113.787,113.787,0,0,1-29.749,137.4a2.073,2.073,0,0,0-1.651,2.435,2.133,2.133,0,0,0,1.485,1.6C-16,145.31,8.15,153.784,20.393,168.179c9.692,11.36,18.3,39.867,22.052,53.8a2.084,2.084,0,0,0,2.569,1.418,2.02,2.02,0,0,0,1.435-1.418c3.87-14.162,13.9-43.454,32.644-55.914,16.748-11.143,35.38-16.714,45.922-19.216a2.065,2.065,0,0,0,1.485-2.569,1.906,1.906,0,0,0-1.368-1.418c-12.711-3.753-36.348-12.227-46.039-24.9C64.047,98.27,56.874,74.55,53.788,61.589ZM159.145,178.471a1.257,1.257,0,0,0-1.535-.917,1.205,1.205,0,0,0-.9.917c-2.235,8.357-7.757,23.77-19.9,33.161a69.03,69.03,0,0,1-28.774,13.128,1.215,1.215,0,0,0-.967,1.485,1.345,1.345,0,0,0,.917.967c8.491,2.385,23.3,7.506,30.776,16.314,5.922,6.939,11.159,24.4,13.495,32.945a1.278,1.278,0,0,0,1.535.9,1.313,1.313,0,0,0,.917-.9c2.385-8.657,8.491-26.573,19.95-34.2,10.259-6.822,21.652-10.225,28.091-11.76a1.249,1.249,0,0,0,.9-1.535,1.223,1.223,0,0,0-.851-.917c-7.807-2.335-22.219-7.456-28.141-15.246C165.417,200.941,161.03,186.428,159.145,178.471Zm41.669-95.1a.856.856,0,0,0-1.034-.634.826.826,0,0,0-.617.634c-1.485,5.571-5.138,15.747-13.228,22a46.5,46.5,0,0,1-19.083,8.757.862.862,0,0,0-.684.967.726.726,0,0,0,.617.634c5.638,1.585,15.446,5,20.467,10.859,3.92,4.6,7.406,16.214,8.941,21.835a.8.8,0,0,0,1.018.567.753.753,0,0,0,.584-.567c1.585-5.738,5.638-17.632,13.261-22.686a58.312,58.312,0,0,1,18.7-7.79.874.874,0,0,0,.634-1.034.935.935,0,0,0-.584-.617c-5.188-1.535-14.746-4.954-18.683-10.125C205.017,98.27,202.064,88.662,200.813,83.374Zm0,0" transform="translate(-164.299 -59.754)" fill="#f8ae08"/>
      </g>
      <g id="Group_316" data-name="Group 316" transform="translate(747.355 225.39)" clip-path="url(#clip-path-2)">
        <path id="Path_259" data-name="Path 259" d="M225.425,61.589a2.023,2.023,0,0,0-2.5-1.535,2.082,2.082,0,0,0-1.535,1.535c-3.653,13.645-12.661,38.833-32.478,54.263A113.788,113.788,0,0,1,141.888,137.4a2.073,2.073,0,0,0-1.651,2.435,2.162,2.162,0,0,0,1.485,1.6c13.912,3.87,38.066,12.344,50.326,26.739,9.675,11.36,18.282,39.867,22.052,53.8a2.059,2.059,0,0,0,2.552,1.418,2.02,2.02,0,0,0,1.435-1.418c3.87-14.162,13.9-43.454,32.644-55.914,16.748-11.143,35.38-16.714,45.922-19.216a2.065,2.065,0,0,0,1.485-2.569,1.906,1.906,0,0,0-1.368-1.418c-12.711-3.753-36.348-12.227-46.039-24.9C235.684,98.27,228.511,74.55,225.425,61.589ZM330.8,178.471a1.282,1.282,0,0,0-1.551-.917,1.23,1.23,0,0,0-.9.917c-2.235,8.357-7.757,23.77-19.9,33.161a69.03,69.03,0,0,1-28.774,13.128,1.215,1.215,0,0,0-.967,1.485,1.345,1.345,0,0,0,.917.967c8.491,2.385,23.3,7.506,30.776,16.314,5.922,6.939,11.159,24.4,13.495,32.945a1.278,1.278,0,0,0,1.535.9,1.313,1.313,0,0,0,.917-.9c2.4-8.657,8.491-26.573,19.95-34.2,10.259-6.822,21.652-10.225,28.091-11.76a1.249,1.249,0,0,0,.9-1.535,1.223,1.223,0,0,0-.851-.917c-7.807-2.335-22.219-7.456-28.141-15.246C337.053,200.941,332.666,186.428,330.8,178.471Zm41.652-95.1a.848.848,0,0,0-1.034-.634.826.826,0,0,0-.617.634c-1.485,5.571-5.138,15.747-13.228,22a46.5,46.5,0,0,1-19.083,8.757.862.862,0,0,0-.684.967.726.726,0,0,0,.617.634c5.655,1.585,15.446,5,20.467,10.859,3.92,4.6,7.406,16.214,8.941,21.835a.8.8,0,0,0,1.018.567.731.731,0,0,0,.584-.567c1.585-5.738,5.638-17.632,13.278-22.686a58.1,58.1,0,0,1,18.683-7.79.874.874,0,0,0,.634-1.034.9.9,0,0,0-.584-.617c-5.171-1.535-14.746-4.954-18.683-10.125C376.654,98.27,373.7,88.662,372.45,83.374Zm0,0" transform="translate(-335.952 -59.754)" fill="#f8ae08"/>
      </g>
      <g id="Group_317" data-name="Group 317" transform="translate(379.942 281.204)" clip-path="url(#clip-path-3)">
        <path id="Path_261" data-name="Path 261" d="M105.639,248.822l111.028,58.266a8.8,8.8,0,0,0,11.86-3.67l83.5-158.368a8.777,8.777,0,0,0-3.686-11.843L197.317,74.941a8.794,8.794,0,0,0-11.86,3.7L101.953,237a8.735,8.735,0,0,0,3.686,11.827" transform="translate(-96.932 -69.92)" fill="#e7c884"/>
      </g>
      <path id="Path_263" data-name="Path 263" d="M106.168,217.056l94.847,49.776,72.578-137.65L178.746,79.422,106.168,217.056" transform="translate(300.114 229.205)" fill="#ef2b65"/>
      <path id="Path_264" data-name="Path 264" d="M226.771,150.007l-25.755,48.825-94.847-49.759,25.755-48.858,94.847,49.792" transform="translate(300.114 297.204)" fill="#d82064"/>
      <path id="Path_265" data-name="Path 265" d="M210.416,157.752a4.487,4.487,0,0,1-2.052-.5l-94.847-49.776a4.395,4.395,0,1,1,4.1-7.773l94.864,49.759a4.4,4.4,0,0,1-2.068,8.29" transform="translate(316.451 293.847)" fill="#682e38"/>
      <path id="Path_266" data-name="Path 266" d="M96.454,264.562l122.721,25.922a8.787,8.787,0,0,0,10.426-6.772l37.148-175.049a8.789,8.789,0,0,0-6.789-10.392L137.239,72.365a8.767,8.767,0,0,0-10.409,6.756L89.682,254.17a8.761,8.761,0,0,0,6.772,10.392" transform="translate(245.573 205.485)" fill="#ecd494"/>
      <path id="Path_267" data-name="Path 267" d="M94.211,229.51,199.05,251.646,231.344,99.5,126.488,77.348,94.211,229.51" transform="translate(261.01 222.422)" fill="#f9ab10"/>
      <path id="Path_268" data-name="Path 268" d="M210.523,122.492l-11.46,53.963L94.207,154.3l11.46-53.963,104.856,22.152" transform="translate(260.998 297.613)" fill="#ef8817"/>
      <path id="Path_269" data-name="Path 269" d="M205.128,130.261a4.32,4.32,0,0,1-.917-.117L99.371,108.009a4.4,4.4,0,1,1,1.818-8.607l104.839,22.152a4.4,4.4,0,0,1-.9,8.707" transform="translate(266.393 294.248)" fill="#682e38"/>
      <path id="Path_270" data-name="Path 270" d="M94.649,275.635l125.39-4.12a8.775,8.775,0,0,0,8.474-9.058L222.641,83.638a8.815,8.815,0,0,0-9.074-8.491l-125.39,4.12A8.775,8.775,0,0,0,79.7,88.326l5.872,178.819a8.793,8.793,0,0,0,9.074,8.491" transform="translate(213.549 215.214)" fill="#f3e2ae"/>
      <path id="Path_271" data-name="Path 271" d="M89.1,238.964l107.124-3.52L191.088,80.012,83.98,83.531,89.1,238.964" transform="translate(227.554 231.134)" fill="#5f639e"/>
      <path id="Path_272" data-name="Path 272" d="M193.7,158.63,86.572,162.167,84.754,107.02l107.108-3.52,1.835,55.13" transform="translate(230.083 307.948)" fill="#525985"/>
      <path id="Path_273" data-name="Path 273" d="M88.145,114.787a4.4,4.4,0,0,1-.15-8.791l107.108-3.52a4.406,4.406,0,0,1,.284,8.807l-107.108,3.5h-.133" transform="translate(226.709 304.568)" fill="#682e38"/>
      <g id="Group_318" data-name="Group 318" transform="translate(232.25 298.285)" clip-path="url(#clip-path-4)">
        <path id="Path_274" data-name="Path 274" d="M120.64,299.1l121.67-30.526a8.745,8.745,0,0,0,6.372-10.626L204.945,84.417a8.772,8.772,0,0,0-10.659-6.372L72.632,108.554A8.781,8.781,0,0,0,66.243,119.2l43.737,173.531A8.806,8.806,0,0,0,120.64,299.1" transform="translate(-63.575 -74.459)" fill="#f8eac5"/>
      </g>
      <path id="Path_276" data-name="Path 276" d="M108.8,259.929l103.922-26.072-38-150.845L70.781,109.1,108.8,259.929" transform="translate(184.388 240.945)" fill="#56bd81"/>
      <path id="Path_277" data-name="Path 277" d="M193.944,159.3,90.022,185.36,76.527,131.847l103.938-26.039,13.478,53.5" transform="translate(203.18 315.497)" fill="#4c8d66"/>
      <path id="Path_278" data-name="Path 278" d="M79.91,139.651a4.4,4.4,0,0,1-1.084-8.674l103.938-26.072a4.4,4.4,0,1,1,2.152,8.541L80.978,139.5a4.019,4.019,0,0,1-1.068.15" transform="translate(199.797 312.114)" fill="#682e38"/>
      <g id="Group_320" data-name="Group 320" transform="translate(223.45 185.649)">
        <g id="Group_319" data-name="Group 319" transform="translate(0 0)">
          <path id="Path_279" data-name="Path 279" d="M20.339-16.311a35.433,35.433,0,0,1,12.411-1q5.655.676,6.405,3.937.8,3.278-.534,8.674-1.276,5.4-3,5.8a2.1,2.1,0,0,1-1.2-.267,7.564,7.564,0,0,0-3-.467,17.318,17.318,0,0,0-3.87.267,11.462,11.462,0,0,0-7.807,5.938q-2.4,4.554-.534,12.477,1.852,7.882,6.205,10.876a11.315,11.315,0,0,0,9.541,1.735,18.652,18.652,0,0,0,4.6-1.735,8.507,8.507,0,0,0,3.336-2.6,1.368,1.368,0,0,1,.734-.4c.35-.083,1.218.467,2.6,1.668a24.165,24.165,0,0,1,4.137,4.8,17.412,17.412,0,0,1,2.6,4.871q.851,3.6-4.2,7.139a38.408,38.408,0,0,1-12.744,5.338q-12.361,2.953-22.352-3.8C7.028,42.405,2.491,34.865-.011,24.323q-3.8-15.813,2.2-26.756A26.969,26.969,0,0,1,20.339-16.311Zm0,0" transform="translate(1.486 17.496)" fill="#fff"/>
        </g>
      </g>
      <g id="Group_322" data-name="Group 322" transform="translate(272.457 174.024)">
        <g id="Group_321" data-name="Group 321" transform="translate(0)">
          <path id="Path_280" data-name="Path 280" d="M31.148-13.065q-.275-1.927,10.009-3.536,10.259-1.651,10.542.267L58.5,27.1a20.154,20.154,0,0,1-4.47,16.814q-6.005,7.206-18.149,9.141-12.16,1.877-20.751-3.269Q6.527,44.659,4.859,33.975L-1.68-7.927q-.325-1.927,9.942-3.536,10.334-1.6,10.676.334l6.672,42.7a3.4,3.4,0,0,0,2.4,2.736,8.778,8.778,0,0,0,8.407-1.2,3.515,3.515,0,0,0,1.468-3.4Zm0,0" transform="translate(1.69 17.367)" fill="#fff"/>
        </g>
      </g>
      <g id="Group_324" data-name="Group 324" transform="translate(336.854 170.322)">
        <g id="Group_323" data-name="Group 323" transform="translate(0 0)">
          <path id="Path_281" data-name="Path 281" d="M22.815,49.8q.05,1.551-9.008,2.2-9.158.676-9.208-.8L.062-11.056c-.183-2.219.9-3.42,3.269-3.6l18.215-1.334Q46.693-17.795,48.1,1.755A24.146,24.146,0,0,1,46.568,12.7a18.7,18.7,0,0,1-5.938,8.074L54.175,39.988q-.6,2.352-4.6,5.6c-3.6,3.069-6.656,4.7-9.141,4.871a6.107,6.107,0,0,1-5.671-2.335L24.216,27.911l-3,.2Zm-3.6-48.641,1.068,14.279.467-.067q9.133-.651,8.607-8.14a6.789,6.789,0,0,0-2.2-5C25.9,1.2,23.916.8,21.213,1.021Zm0,0" transform="translate(-0.042 16.145)" fill="#fff"/>
        </g>
      </g>
      <g id="Group_326" data-name="Group 326" transform="translate(391.993 168.479)">
        <g id="Group_325" data-name="Group 325" transform="translate(0 0)">
          <path id="Path_282" data-name="Path 282" d="M48.718,51.761c-5.571-.05-8.574-.951-9.008-2.736l-3-12.477L21.5,36.414l-2.936,11.81c-.4,2-3.47,2.969-9.208,2.936a33.17,33.17,0,0,1-6.806-.6c-1.468-.4-2.2-.684-2.2-.867L18.025-14.963q0-.8,13.078-.6c8.757.1,13.145.4,13.145.934l15.88,65.055c0,.45-1.5.767-4.47,1A65.877,65.877,0,0,1,48.718,51.761ZM24.031,24.271l10.075.133L29.969,4.521h-.6Zm0,0" transform="translate(-0.344 15.603)" fill="#fff"/>
        </g>
      </g>
      <g id="Group_328" data-name="Group 328" transform="translate(456.564 169.463)">
        <g id="Group_327" data-name="Group 327" transform="translate(0 0)">
          <path id="Path_283" data-name="Path 283" d="M29.3,52.416c-.133,1.284-3.37,1.635-9.675,1.068q-9.408-.8-9.208-2.736L14.687,2.84,3.211,1.773c-1.068-.083-1.7-1.618-1.868-4.6A33.773,33.773,0,0,1,1.476-7.1a32.1,32.1,0,0,1,.667-4.27c.7-2.886,1.6-4.287,2.669-4.2l41.5,3.737c1.068.1,1.7,1.635,1.935,4.6a37.1,37.1,0,0,1-.133,4.27,34.573,34.573,0,0,1-.667,4.27c-.767,2.9-1.668,4.3-2.736,4.2l-11.143-1Zm0,0" transform="translate(-1.324 15.579)" fill="#fff"/>
        </g>
      </g>
      <g id="Group_330" data-name="Group 330" transform="translate(501.948 174.822)">
        <g id="Group_329" data-name="Group 329" transform="translate(0 0)">
          <path id="Path_284" data-name="Path 284" d="M37.826,15.59c1.2.183,1.468,2.5.8,6.939a35.864,35.864,0,0,1-1.2,4.671c-.584,1.735-1.251,2.569-2,2.469l-12.01-1.935-1.468,9.408,17.348,2.736c1.1.183,1.635,1.668,1.6,4.47a24.435,24.435,0,0,1-.334,3.937,37.495,37.495,0,0,1-1.4,5.138c-.717,2.085-1.535,3.069-2.469,2.936L4.331,51.287c-2.369-.4-3.386-1.568-3.069-3.536L10.87-13.1c.267-1.635,1.134-2.352,2.6-2.135L47.3-9.9c1.334.234,1.551,3.136.667,8.741-.9,5.571-2,8.24-3.336,8.007L27.151,4.113l-1.535,9.541Zm0,0" transform="translate(-1.206 15.274)" fill="#fff"/>
        </g>
      </g>
      <g id="Group_332" data-name="Group 332" transform="translate(546.783 183.466)">
        <g id="Group_331" data-name="Group 331" transform="translate(0)">
          <path id="Path_285" data-name="Path 285" d="M1.462,45.336,14.674-10.645a5.514,5.514,0,0,1,2-3.4,3.918,3.918,0,0,1,3.269-.667l15.613,3.67Q50.421-7.492,56.376,1.766q5.93,9.283,2.135,25.288-8.082,34.279-37.3,27.423L5.2,50.674C2.03,49.957.8,48.189,1.462,45.336ZM29.62,6.3,23.014,34.127a7.459,7.459,0,0,0-.267,2.535c.083.4.6.717,1.535.934a9.1,9.1,0,0,0,8.674-2q3.6-3.2,5.671-12.077,2.127-8.933,0-12.277c-1.435-2.219-4.137-3.8-8.14-4.737Zm0,0" transform="translate(-1.287 14.822)" fill="#fff"/>
        </g>
      </g>
      <g id="Group_334" data-name="Group 334" transform="translate(200.419 36.684)">
        <g id="Group_333" data-name="Group 333" transform="translate(0)">
          <path id="Path_286" data-name="Path 286" d="M18.253,13.033,16.651,7.3c-.133-.434.167-.817.934-1.134a16.6,16.6,0,0,1,2-.8l1.735-.334c1.1-.167,1.735-.033,1.868.4l3.6,13.345a10.47,10.47,0,0,1-3,2.135,26.262,26.262,0,0,1-5.671,2.269A13.548,13.548,0,0,1,7.043,22.108C3.74,20.156,1.372,16.6-.1,11.432Q-2.023,4.9.5-.178C2.156-3.6,5.142-5.95,9.512-7.251a24.912,24.912,0,0,1,5.471-1,6.3,6.3,0,0,1,3.67.6c.083.234.217.651.4,1.268a9.243,9.243,0,0,1,.133,2.8,8.906,8.906,0,0,1-.667,3c-.367.717-.651,1.118-.867,1.2a1.577,1.577,0,0,1-.867-.133,5.777,5.777,0,0,0-1.8-.2,8.616,8.616,0,0,0-2.4.334A6.032,6.032,0,0,0,8.845,3.492c-.767,1.385-.8,3.269-.133,5.671A8.36,8.36,0,0,0,11.981,14.1a5.28,5.28,0,0,0,4.337.734C17.786,14.4,18.42,13.8,18.253,13.033Zm0,0" transform="translate(0.93 8.27)" fill="#f8eac5"/>
        </g>
      </g>
      <g id="Group_336" data-name="Group 336" transform="translate(230.57 30.037)">
        <g id="Group_335" data-name="Group 335">
          <path id="Path_287" data-name="Path 287" d="M21.81,20.941c-2.5.634-3.92.584-4.27-.133l-2.869-5.138L7.865,17.337,8,22.942c.033.9-1.2,1.668-3.737,2.335a19.909,19.909,0,0,1-3.136.534c-.667,0-1-.033-1-.133L.459-5.148c-.05-.217,1.868-.8,5.738-1.735,3.9-.967,5.888-1.351,5.938-1.134l14.612,27.09c.033.234-.6.567-1.935,1C23.512,20.473,22.511,20.774,21.81,20.941ZM7.665,11.6l4.47-1.134L8,2.125l-.267.067Zm0,0" transform="translate(-0.125 8.076)" fill="#f8eac5"/>
        </g>
      </g>
      <g id="Group_338" data-name="Group 338" transform="translate(254.581 20.933)">
        <g id="Group_337" data-name="Group 337" transform="translate(0)">
          <path id="Path_288" data-name="Path 288" d="M34.41,21.753q-3.8.751-4-.2L26.07,4.471l-1.8,18.616c0,.367-.934.734-2.8,1.134q-2.8.55-3,0L9.589,7.607l2.8,17.348c.033.4-.467.8-1.535,1.2a26.241,26.241,0,0,1-2.6.8,15.8,15.8,0,0,1-2,.267c-1.468.05-2.235-.2-2.269-.734L-.619-1.734C-.753-2.4.965-3.085,4.518-3.8c.967-.167,2.235-.334,3.8-.467,1.551-.167,2.469-.067,2.736.334L18.53,8.742,20.065-5.737c.083-.8,1.968-1.551,5.671-2.269a35.069,35.069,0,0,1,3.87-.534c1.551-.133,2.369,0,2.469.4l6.739,28.024c.083.317-.434.667-1.535,1.068A22.659,22.659,0,0,1,34.41,21.753Zm0,0" transform="translate(0.627 8.59)" fill="#f8eac5"/>
        </g>
      </g>
      <g id="Group_340" data-name="Group 340" transform="translate(293.467 16.884)">
        <g id="Group_339" data-name="Group 339" transform="translate(0)">
          <path id="Path_289" data-name="Path 289" d="M15.242,4.683c.567-.083,1.018.9,1.334,2.936a16.256,16.256,0,0,1,.133,2.135c0,.8-.183,1.251-.534,1.334l-5.538.8.667,4.337,8.007-1.2c.534-.083.967.517,1.334,1.8a12.619,12.619,0,0,1,.4,1.735,15.809,15.809,0,0,1,.067,2.469c0,1.034-.234,1.568-.667,1.6L5.567,24.9c-1.068.183-1.668-.167-1.8-1.068L-.5-4.124c-.133-.751.117-1.168.734-1.268l15.613-2.4c.617-.083,1.134,1.168,1.535,3.737.4,2.535.284,3.853-.334,3.937L8.97,1.08l.667,4.4Zm0,0" transform="translate(0.539 7.798)" fill="#f8eac5"/>
        </g>
      </g>
      <g id="Group_342" data-name="Group 342" transform="translate(315.988 14.304)">
        <g id="Group_341" data-name="Group 341" transform="translate(0)">
          <path id="Path_290" data-name="Path 290" d="M2.632,13.923A29.367,29.367,0,0,0,5.7,15.391a8.18,8.18,0,0,0,4,.667c1.234-.167,1.8-.734,1.668-1.668a1.442,1.442,0,0,0-.667-1.068,7.676,7.676,0,0,0-2.068-.934q-1.476-.525-2.2-.8a13.769,13.769,0,0,1-2-.934A7.563,7.563,0,0,1,2.5,9.052,10.723,10.723,0,0,1-.1,2.914,8.594,8.594,0,0,1,1.965-3.892,10.815,10.815,0,0,1,9.171-7.428a23.967,23.967,0,0,1,5.872-.067c1.818.234,2.819.717,3,1.468a.489.489,0,0,0,.067.267,11.973,11.973,0,0,1-.534,3.937A7.689,7.689,0,0,1,16.51.912a11.608,11.608,0,0,0-5.138-.8q-2.2.275-2,1.8C9.4,2.58,10,3.1,11.173,3.448q.4.15,1,.4c.434.133.967.317,1.6.534a13.147,13.147,0,0,1,2,.8A19.15,19.15,0,0,1,18.112,6.65a7.344,7.344,0,0,1,3,5.4,11.151,11.151,0,0,1-1.668,8.007q-2.2,3.278-7.54,4.07a24.653,24.653,0,0,1-4.8.067,8.714,8.714,0,0,1-3.87-1.268,3.838,3.838,0,0,1-2-2.8,10.209,10.209,0,0,1,.267-3.67A5.541,5.541,0,0,1,2.632,13.923Zm0,0" transform="translate(0.172 7.644)" fill="#f8eac5"/>
        </g>
      </g>
      <g id="Group_344" data-name="Group 344" transform="translate(347.15 11.247)">
        <g id="Group_343" data-name="Group 343" transform="translate(0 0)">
          <path id="Path_291" data-name="Path 291" d="M16.409-7.531c.534-.033.884,1.234,1.068,3.8.217,2.586.067,3.9-.467,3.937L9.069.876l.4,5,5.271-.467q.726-.05,1,3.4c.167,2.269.033,3.436-.4,3.47L10,12.753l.8,10.476q.05.676-1.6,1c-1.068.183-1.968.317-2.669.4H4.4c-1.435-.033-2.169-.267-2.2-.667L-.072-5.062c-.033-.484.033-.8.2-.934A1.5,1.5,0,0,1,1-6.33Zm0,0" transform="translate(0.08 7.531)" fill="#f8eac5"/>
        </g>
      </g>
      <g id="Group_346" data-name="Group 346" transform="translate(368.552 10.453)">
        <g id="Group_345" data-name="Group 345" transform="translate(0 0)">
          <path id="Path_292" data-name="Path 292" d="M9.947,22.92c0,.45-1.4.734-4.2.867-2.8.1-4.2-.083-4.2-.534L.206-5.371c-.05-1.018.467-1.551,1.535-1.6l8.407-.334q11.61-.525,12.01,8.474a10.934,10.934,0,0,1-.867,5,9.246,9.246,0,0,1-2.8,3.67l5.938,8.941a5.609,5.609,0,0,1-2.135,2.535c-1.735,1.334-3.186,2.035-4.337,2.068a2.961,2.961,0,0,1-2.6-1.068l-4.537-9.475-1.334.067ZM8.88.5l.334,6.606h.2c2.8-.133,4.137-1.351,4-3.67A3.154,3.154,0,0,0,12.483,1.1,3.935,3.935,0,0,0,9.814.434Zm0,0" transform="translate(-0.202 7.335)" fill="#f8eac5"/>
        </g>
      </g>
      <g id="Group_348" data-name="Group 348" transform="translate(394.208 9.335)">
        <g id="Group_347" data-name="Group 347" transform="translate(0 0)">
          <path id="Path_293" data-name="Path 293" d="M14.36,24.248A13.422,13.422,0,0,1,4.218,20.311Q.34,16.258.281,8.5.281.77,4.151-3.242a13.52,13.52,0,0,1,10.142-4.07,13.36,13.36,0,0,1,10.075,3.87c2.569,2.586,3.87,6.539,3.87,11.877q.05,7.957-3.8,11.877A13.47,13.47,0,0,1,14.36,24.248ZM14.226,1.1A4.323,4.323,0,0,0,10.69,3.03,9.246,9.246,0,0,0,9.289,8.5a9.21,9.21,0,0,0,1.4,5.338,4.3,4.3,0,0,0,3.6,1.868,4.454,4.454,0,0,0,3.6-1.935,8.834,8.834,0,0,0,1.334-5.4,8.688,8.688,0,0,0-1.468-5.4A4.09,4.09,0,0,0,14.226,1.1Zm0,0" transform="translate(-0.281 7.313)" fill="#f8eac5"/>
        </g>
      </g>
      <g id="Group_350" data-name="Group 350" transform="translate(425.132 9.777)">
        <g id="Group_349" data-name="Group 349" transform="translate(0)">
          <path id="Path_294" data-name="Path 294" d="M31.232,24.806c-2.586-.1-3.853-.45-3.8-1.068l-.2-17.682L21.023,23.738q-.15.525-3,.4c-1.868-.1-2.836-.317-2.869-.667L10.414,5.189,9.079,22.737q-.15.6-1.8.8a15.9,15.9,0,0,1-2.669.133c-.717-.05-1.4-.117-2.068-.2-1.435-.3-2.1-.734-2-1.268l2.2-28.491c.033-.7,1.868-.967,5.471-.8q1.526.075,3.8.4c1.551.234,2.4.584,2.535,1.068L18.888,8.392,23.758-5.287c.3-.751,2.352-1.034,6.139-.867q1.6.075,3.8.4,2.252.35,2.2,1l.067,28.825c-.05.3-.634.5-1.735.6A19.228,19.228,0,0,1,31.232,24.806Zm0,0" transform="translate(-0.529 7.136)" fill="#f8eac5"/>
        </g>
      </g>
      <g id="Group_352" data-name="Group 352" transform="translate(472.155 12.416)">
        <g id="Group_351" data-name="Group 351" transform="translate(0)">
          <path id="Path_295" data-name="Path 295" d="M4.422,23.873C1.753,23.606.435,23.189.485,22.606L3.355-5.752A1.273,1.273,0,0,1,4.889-7.086l7.673.8c4.3.4,7.34,1.6,9.074,3.6q2.6,2.953,2.068,8.074a12.358,12.358,0,0,1-3.47,7.406,9.54,9.54,0,0,1-4.27,2.4,16.242,16.242,0,0,1-6.205.467l-.8,7.74c0,.35-.584.534-1.735.534A20.7,20.7,0,0,1,4.422,23.873ZM11.228,1.254l-.734,6.873.534.067A3.654,3.654,0,0,0,13.7,7.459a3.282,3.282,0,0,0,1.334-2.535,3.369,3.369,0,0,0-.467-2.535A3.361,3.361,0,0,0,12.1,1.321Zm0,0" transform="translate(-0.484 7.096)" fill="#f8eac5"/>
        </g>
      </g>
      <g id="Group_354" data-name="Group 354" transform="translate(496.909 15.095)">
        <g id="Group_353" data-name="Group 353" transform="translate(0)">
          <path id="Path_296" data-name="Path 296" d="M16.993,6.841c.567.05.734,1.1.467,3.136a14.817,14.817,0,0,1-.534,2.2c-.234.8-.517,1.184-.867,1.134l-5.538-.8-.6,4.337,7.94,1.134c.534.05.8.734.8,2.068a9.4,9.4,0,0,1-.067,1.8,20.219,20.219,0,0,1-.6,2.335c-.317.967-.7,1.435-1.134,1.4l-14.879-2c-1.068-.183-1.535-.7-1.4-1.6L4.316-6.036c.083-.751.467-1.084,1.134-1L21-4.9q.926.15.4,4c-.317,2.535-.784,3.77-1.4,3.67L11.989,1.637l-.6,4.4Zm0,0" transform="translate(-0.557 7.05)" fill="#f8eac5"/>
        </g>
      </g>
      <g id="Group_356" data-name="Group 356" transform="translate(521.035 18.072)">
        <g id="Group_355" data-name="Group 355">
          <path id="Path_297" data-name="Path 297" d="M1.3-6.892c0-.133.634-.133,1.935,0,1.284.1,2.335.2,3.136.334,3.2.534,4.8,1.234,4.8,2.068l.534,19.683L18.445-3.289c.267-.751,2.1-.834,5.538-.267.834.133,1.885.367,3.136.667,1.284.317,1.9.567,1.868.734L16.51,25.2c-.234.434-1.134.617-2.736.534a36.877,36.877,0,0,1-6.806-1.068c-1.968-.5-2.969-.934-3-1.334Zm0,0" transform="translate(-1.297 6.992)" fill="#f8eac5"/>
        </g>
      </g>
      <g id="Group_358" data-name="Group 358" transform="translate(544.344 24.643)">
        <g id="Group_357" data-name="Group 357" transform="translate(0)">
          <path id="Path_298" data-name="Path 298" d="M21.81,26.287c-2.535-.534-3.8-1.234-3.8-2.068l-.334-5.8-6.806-1.468-2.4,5.071c-.367.834-1.835,1-4.4.467a15.107,15.107,0,0,1-3-.934c-.634-.267-.917-.434-.867-.534L13.937-6.474c.083-.267,2.085.033,6.005.867,3.9.851,5.822,1.4,5.738,1.668l1.334,30.626c-.05.217-.767.234-2.135.067A24.494,24.494,0,0,1,21.81,26.287ZM13.136,11.674l4.537,1L17.54,3.4l-.2-.067Zm0,0" transform="translate(-0.186 6.569)" fill="#f8eac5"/>
        </g>
      </g>
      <g id="Group_360" data-name="Group 360" transform="translate(573.458 29.564)">
        <g id="Group_359" data-name="Group 359" transform="translate(0 0)">
          <path id="Path_299" data-name="Path 299" d="M23.908,27.726c-.133.567-1.535.534-4.2-.133s-4.053-1.268-4.137-1.8l-3.8-15.013L8.428,23.99c-.133.534-1.518.467-4.137-.2-2.636-.667-3.87-1.268-3.737-1.8L7.76-6.5c.133-.434,1.3-.367,3.536.2a28.663,28.663,0,0,1,3,1c1.151.45,1.818.934,2,1.468l3.536,14.813,3.4-13.345c.133-.534,1.5-.467,4.137.2C30-1.5,31.247-.9,31.114-.364Zm0,0" transform="translate(-0.545 6.785)" fill="#f8eac5"/>
        </g>
      </g>
      <g id="Group_362" data-name="Group 362" transform="translate(600.599 38.512)">
        <g id="Group_361" data-name="Group 361" transform="translate(0 0)">
          <path id="Path_300" data-name="Path 300" d="M4.371,11.3A29.308,29.308,0,0,0,6.64,13.834a8.128,8.128,0,0,0,3.47,2.2q1.8.55,2.2-.8a1.445,1.445,0,0,0-.2-1.268,9.981,9.981,0,0,0-1.535-1.735c-.767-.7-1.334-1.234-1.735-1.6A18.3,18.3,0,0,1,7.374,8.963,5.694,5.694,0,0,1,6.24,6.695,10.77,10.77,0,0,1,6.306.089a8.464,8.464,0,0,1,4.537-5.4,10.82,10.82,0,0,1,7.94-.467,24.66,24.66,0,0,1,5.471,2.335c1.6.9,2.335,1.718,2.2,2.469a.572.572,0,0,0-.067.267,11.588,11.588,0,0,1-2.068,3.47,8.536,8.536,0,0,1-1.935,2.068,11.3,11.3,0,0,0-4.47-2.8c-1.435-.434-2.3-.15-2.6.867-.183.667.167,1.385,1.068,2.135a8.927,8.927,0,0,1,.8.8c.35.317.767.7,1.268,1.134A17.456,17.456,0,0,1,19.985,8.43,11.149,11.149,0,0,1,21.519,10.7a7.513,7.513,0,0,1,.667,6.205,11.415,11.415,0,0,1-4.671,6.672q-3.353,2.127-8.607.734a22.684,22.684,0,0,1-4.47-1.8,9.722,9.722,0,0,1-3.069-2.736A3.921,3.921,0,0,1,.7,16.37a9.809,9.809,0,0,1,1.668-3.2A5.356,5.356,0,0,1,4.371,11.3Zm0,0" transform="translate(-0.561 6.311)" fill="#f8eac5"/>
        </g>
      </g>
    </g>
  </g>
</svg>
