<svg xmlns="http://www.w3.org/2000/svg" width="42.939" height="35.435" viewBox="0 0 42.939 35.435">
  <g id="bdcb0c3f6d67999723518ef3c2ad5494" transform="translate(1.232 2.063)">
    <path id="Path_4" data-name="Path 4" d="M41.295,8.574a1.214,1.214,0,0,0-1.006-.535h0l-23.959.055L14.333,2.037A1.217,1.217,0,0,0,13.176,1.2H11.215a1.219,1.219,0,0,0,0,2.438H12.3l1.983,6.031c.006.019.013.035.019.055l3.038,9.239-3.78,7.055a1.219,1.219,0,0,0,1.074,1.794h21.4a1.217,1.217,0,1,0,0-2.434H16.664l2.72-5.078H36.367a1.211,1.211,0,0,0,1.128-.766l3.922-9.818A1.229,1.229,0,0,0,41.295,8.574ZM35.54,17.858H19.531l-2.408-7.329,21.361-.048Z" transform="translate(-10 -1.2)"/>
    <path id="Path_5" data-name="Path 5" d="M199.1,897.9a1.7,1.7,0,1,0,1.7,1.7A1.7,1.7,0,0,0,199.1,897.9Z" transform="translate(-191.406 -868.928)"/>
    <path id="Path_6" data-name="Path 6" d="M659.7,897.9a1.7,1.7,0,1,0,1.7,1.7A1.7,1.7,0,0,0,659.7,897.9Z" transform="translate(-637.276 -868.928)"/>
  </g>
  <g id="Group_3" data-name="Group 3" transform="translate(22.534)">
    <ellipse id="Ellipse_1" data-name="Ellipse 1" cx="10.203" cy="10.203" rx="10.203" ry="10.203" transform="translate(0 0)" fill="#e81d1d"/>
    <text id="A_transformative_tri" data-name="A transformative tri" transform="translate(6.278 0)" fill="#fff" font-size="15" font-family="Heebo-Regular, Heebo" opacity="0.92"><tspan x="0" y="16">0</tspan></text>
  </g>
</svg>
