<svg xmlns="http://www.w3.org/2000/svg" xmlns:xlink="http://www.w3.org/1999/xlink" width="160.641" height="163.224" viewBox="0 0 160.641 163.224">
  <defs>
    <clipPath id="clip-path">
      <path id="Path_303" data-name="Path 303" d="M143,84h73.486v74.248H143Zm0,0" transform="translate(-143 -84)" fill="#245698"/>
    </clipPath>
    <clipPath id="clip-path-2">
      <path id="Path_305" data-name="Path 305" d="M166,52.52h82.175v83.323H166Zm0,0" transform="translate(-166 -52.52)"/>
    </clipPath>
    <clipPath id="clip-path-3">
      <path id="Path_308" data-name="Path 308" d="M138.238,64h72.813v73.486H138.238Zm0,0" transform="translate(-138.238 -64)"/>
    </clipPath>
  </defs>
  <g id="Group_411" data-name="Group 411" transform="translate(-390.715 -148.439)">
    <g id="Group_363" data-name="Group 363" transform="translate(404.174 237.416)" clip-path="url(#clip-path)">
      <path id="Path_302" data-name="Path 302" d="M180.811,143.115h20.028V122.237a9.632,9.632,0,0,0,5.222,1.546,9.788,9.788,0,0,0,0-19.575,9.549,9.549,0,0,0-5.222,1.557V84.887H143.262v20.922a9.542,9.542,0,0,1,5.288-1.6,9.788,9.788,0,0,1,0,19.575,9.533,9.533,0,0,1-5.288-1.59v20.922h20.028a9.677,9.677,0,1,0,17.521,0" transform="translate(-142.522 -82.38)" fill="#6f96c7"/>
    </g>
    <g id="Group_364" data-name="Group 364" transform="translate(469.181 148.439)" clip-path="url(#clip-path-2)">
      <path id="Path_304" data-name="Path 304" d="M185.486,106.857a9.609,9.609,0,0,1,13.47-2.473,9.871,9.871,0,0,1,2.451,13.624,9.723,9.723,0,0,1-4.482,3.555l17.091,11.968,11.339-16.55a9.654,9.654,0,0,0,16.2.431,9.879,9.879,0,0,0-2.44-13.624,9.622,9.622,0,0,0-3.643-1.557l11.35-16.55L230.2,74.045a9.748,9.748,0,0,0,3.445-3.08A9.858,9.858,0,0,0,231.2,57.34,9.614,9.614,0,0,0,217.735,59.8a10.013,10.013,0,0,0-1.645,4.35L199.485,52.516,187.97,69.308a9.616,9.616,0,0,0-16.517-1.016A9.873,9.873,0,0,0,173.9,81.917a9.516,9.516,0,0,0,4.284,1.656l-11.5,16.793,17.08,11.979a9.878,9.878,0,0,1,1.722-5.487" transform="translate(-164.751 -52.527)" fill="#f46d82"/>
    </g>
    <path id="Path_306" data-name="Path 306" d="M221.22,132.847a9.471,9.471,0,0,0,3.864.817,9.788,9.788,0,1,0-3.864-18.758V94.768H200.431a9.683,9.683,0,1,0-16.009,0H163.633v20.878a9.549,9.549,0,0,1,5.222-1.557,9.788,9.788,0,0,1,0,19.575,9.632,9.632,0,0,1-5.222-1.546V153h20.9a9.677,9.677,0,1,1,15.8,0H221.22V132.847" transform="translate(298.857 145.154)" fill="#f04044"/>
    <g id="Group_365" data-name="Group 365" transform="translate(390.715 180.889)" clip-path="url(#clip-path-3)">
      <path id="Path_307" data-name="Path 307" d="M209.935,102.077a9.5,9.5,0,0,1-4.46,1.115,9.788,9.788,0,0,1,0-19.575,9.5,9.5,0,0,1,4.46,1.1V64.285H190.349a9.677,9.677,0,1,1-18.4,0H152.358v20.4a9.537,9.537,0,0,0-4.394-1.071,9.788,9.788,0,1,0,4.394,18.5v20.392h20.094a9.706,9.706,0,1,0,18.372,4.284,9.922,9.922,0,0,0-.983-4.284h20.094V102.077" transform="translate(-138.16 -63.479)" fill="#ffae94"/>
    </g>
  </g>
</svg>
