<svg xmlns="http://www.w3.org/2000/svg" xmlns:xlink="http://www.w3.org/1999/xlink" width="375" height="170" viewBox="0 0 375 170">
  <defs>
    <clipPath id="clip-path">
      <path id="Path_258" data-name="Path 258" d="M14.4,59.93h14.02V81.556H14.4Zm0,0" transform="translate(-14.398 -59.93)"/>
    </clipPath>
    <clipPath id="clip-path-2">
      <path id="Path_260" data-name="Path 260" d="M186.039,59.93h14.02V81.556h-14.02Zm0,0" transform="translate(-186.039 -59.93)"/>
    </clipPath>
    <clipPath id="clip-path-3">
      <path id="Path_262" data-name="Path 262" d="M100,73h45.879v50.462H100Zm0,0" transform="translate(-100 -73)"/>
    </clipPath>
    <clipPath id="clip-path-4">
      <path id="Path_275" data-name="Path 275" d="M65.414,77h39.275v47.533H65.414Zm0,0" transform="translate(-65.414 -77)"/>
    </clipPath>
  </defs>
  <g id="Group_407" data-name="Group 407" transform="translate(0 -128)">
    <rect id="Rectangle_81" data-name="Rectangle 81" width="375" height="170" transform="translate(0 128)" fill="#002657"/>
    <g id="surface1" transform="translate(105.156 158.747)">
      <g id="Group_292" data-name="Group 292" transform="translate(14.69 26.926)">
        <g id="Group_291" data-name="Group 291">
          <path id="Path_245" data-name="Path 245" d="M5.727-5.07c.113.246-.444.644-1.661,1.2s-1.873.7-1.985.451l-4.2-9.236-2.211,1.014c-.2.084-.479-.13-.817-.648a9.025,9.025,0,0,1-.436-.817,6.038,6.038,0,0,1-.31-.845c-.176-.609-.162-.957.042-1.042l8.011-3.647c.2-.092.486.123.845.648.141.246.275.514.408.8a8.044,8.044,0,0,1,.338.859c.158.6.134.95-.07,1.042l-2.154.986Zm0,0" transform="translate(6.011 18.663)" fill="#fff"/>
        </g>
      </g>
      <g id="Group_294" data-name="Group 294" transform="translate(25.117 22.548)">
        <g id="Group_293" data-name="Group 293" transform="translate(0)">
          <path id="Path_246" data-name="Path 246" d="M10.767-6.316q.111.327-1.816,1.028t-2.027.366L5.332-9.3l-2.661.972L4.262-3.95q.111.327-1.8,1.028T.433-2.556l-4.59-12.587q-.137-.407,1.774-1.1t2.056-.3l1.619,4.463,2.661-.971L2.348-17.481c-.067-.176.2-.415.817-.718.31-.141.623-.268.943-.38l.986-.324c.665-.158,1.031-.148,1.1.028Zm0,0" transform="translate(4.166 19.015)" fill="#fff"/>
        </g>
      </g>
      <g id="Group_296" data-name="Group 296" transform="translate(38.948 19.444)">
        <g id="Group_295" data-name="Group 295" transform="translate(0)">
          <path id="Path_247" data-name="Path 247" d="M6.667-3.34a6.171,6.171,0,0,1-4.956-.62A7.606,7.606,0,0,1-1.4-8.76a7.4,7.4,0,0,1,.366-5.688,6.279,6.279,0,0,1,4.041-2.971,6.168,6.168,0,0,1,4.928.563q2.154,1.3,3.1,4.843t-.338,5.745A6.261,6.261,0,0,1,6.667-3.34ZM3.949-13.646A2.02,2.02,0,0,0,2.6-12.365a4.09,4.09,0,0,0,0,2.577A4.243,4.243,0,0,0,3.837-7.564a1.977,1.977,0,0,0,1.816.408A1.983,1.983,0,0,0,7.047-8.423a4.122,4.122,0,0,0-.028-2.563,4.079,4.079,0,0,0-1.267-2.239A1.97,1.97,0,0,0,3.949-13.646Zm0,0" transform="translate(1.781 17.683)" fill="#fff"/>
        </g>
      </g>
      <g id="Group_298" data-name="Group 298" transform="translate(51.891 16.146)">
        <g id="Group_297" data-name="Group 297" transform="translate(0)">
          <path id="Path_248" data-name="Path 248" d="M5.007-16.558q-.074-.407,2.1-.774t2.239.028l1.563,9.152A4.319,4.319,0,0,1,10-4.59,5.942,5.942,0,0,1,6.2-2.619a6.435,6.435,0,0,1-4.393-.605A4.459,4.459,0,0,1-.4-6.533l-1.507-8.828q-.069-.407,2.1-.774t2.239.028l1.535,9a.751.751,0,0,0,.521.563,1.858,1.858,0,0,0,.957.084,1.7,1.7,0,0,0,.817-.366.739.739,0,0,0,.282-.718Zm0,0" transform="translate(1.909 17.515)" fill="#fff"/>
        </g>
      </g>
      <g id="Group_300" data-name="Group 300" transform="translate(65.544 14.923)">
        <g id="Group_299" data-name="Group 299" transform="translate(0)">
          <path id="Path_249" data-name="Path 249" d="M8.1-6.567,7.907-9.3c-.021-.2.162-.341.549-.436A6.677,6.677,0,0,1,9.414-9.9l.788-.014c.514.039.781.162.8.366l.451,6.294a4.488,4.488,0,0,1-1.563.7,13.425,13.425,0,0,1-2.774.507A6.183,6.183,0,0,1,2.247-3.54,7.8,7.8,0,0,1-.02-8.947,7.312,7.312,0,0,1,1.3-14.17a6.241,6.241,0,0,1,4.689-2.365,11.176,11.176,0,0,1,2.577.07,3.224,3.224,0,0,1,1.619.577c.018.106.035.306.056.605a3.921,3.921,0,0,1-.2,1.3,3.516,3.516,0,0,1-.577,1.281c-.225.292-.394.444-.507.451a.64.64,0,0,1-.38-.113,2.437,2.437,0,0,0-.774-.268A3.792,3.792,0,0,0,6.7-12.72a2.712,2.712,0,0,0-1.957.986A3.508,3.508,0,0,0,4.19-9.186a3.742,3.742,0,0,0,1,2.506A2.454,2.454,0,0,0,7.1-5.962C7.8-6.018,8.132-6.219,8.1-6.567Zm0,0" transform="translate(0.058 16.578)" fill="#fff"/>
        </g>
      </g>
      <g id="Group_302" data-name="Group 302" transform="translate(78.578 14.629)">
        <g id="Group_301" data-name="Group 301">
          <path id="Path_250" data-name="Path 250" d="M12.121-1.894c0,.225-.683.338-2.042.338s-2.042-.113-2.042-.338v-4.66H5.208v4.66c0,.225-.683.338-2.042.338s-2.042-.113-2.042-.338V-15.3c0-.289.679-.436,2.042-.436s2.042.148,2.042.436v4.745h2.83V-15.27c0-.187.338-.317,1.014-.394.345-.028.69-.042,1.028-.042l1.028.042c.676.077,1.014.208,1.014.394Zm0,0" transform="translate(-1.125 15.734)" fill="#fff"/>
        </g>
      </g>
      <g id="Group_304" data-name="Group 304" transform="translate(91.144 14.795)">
        <g id="Group_303" data-name="Group 303" transform="translate(0 0)">
          <path id="Path_251" data-name="Path 251" d="M7.212-1.317q-.032.407-2.027.253c-1.323-.106-1.978-.292-1.957-.563L4.016-11.75l-2.422-.183c-.225-.018-.363-.341-.408-.972a6.213,6.213,0,0,1,0-.887,6.808,6.808,0,0,1,.141-.915q.211-.913.549-.887l8.772.676q.338.032.422.971a8.121,8.121,0,0,1-.028.915,6.933,6.933,0,0,1-.113.887c-.151.612-.338.908-.563.887L8-11.44Zm0,0" transform="translate(-1.17 15.595)" fill="#fff"/>
        </g>
      </g>
      <g id="Group_306" data-name="Group 306" transform="translate(100.719 15.785)">
        <g id="Group_305" data-name="Group 305" transform="translate(0)">
          <path id="Path_252" data-name="Path 252" d="M10.619-14.3c.225.028.246.634.07,1.816s-.366,1.76-.591,1.732l-3.675-.535L6.1-9.006l2.45.352c.225.039.26.574.113,1.605s-.331,1.535-.535,1.507L5.649-5.909l-.69,4.815c-.028.187-.3.275-.8.268A11.494,11.494,0,0,1,2.89-.91L1.96-1.094c-.641-.169-.95-.348-.929-.535L2.946-14.878c.035-.215.1-.345.2-.394a.609.609,0,0,1,.408-.042Zm0,0" transform="translate(-1.03 15.328)" fill="#fff"/>
        </g>
      </g>
      <g id="Group_308" data-name="Group 308" transform="translate(110.264 17.365)">
        <g id="Group_307" data-name="Group 307" transform="translate(0)">
          <path id="Path_253" data-name="Path 253" d="M10.568-13.247c.056-.26.8-.232,2.225.084s2.126.6,2.07.859L12.848-3.251A4.264,4.264,0,0,1,10.68-.28,5.921,5.921,0,0,1,6.428.114,6.5,6.5,0,0,1,2.584-2.11a4.471,4.471,0,0,1-.8-3.9l1.929-8.744q.1-.391,2.239.084c1.436.32,2.119.612,2.056.873L6.048-4.884a.74.74,0,0,0,.268.718,1.871,1.871,0,0,0,.845.436,1.805,1.805,0,0,0,.9-.028A.744.744,0,0,0,8.6-4.321Zm0,0" transform="translate(-1.645 14.93)" fill="#fff"/>
        </g>
      </g>
      <g id="Group_310" data-name="Group 310" transform="translate(121.771 20.378)">
        <g id="Group_309" data-name="Group 309" transform="translate(0)">
          <path id="Path_254" data-name="Path 254" d="M1.228-2.357l3.59-12.052q.111-.407,2.084.183t1.859,1L5.93-3.736,8.9-2.849c.232.067.31.419.225,1.056a7.436,7.436,0,0,1-.211.915c-.1.31-.208.623-.338.943-.292.591-.556.848-.788.774L1.819-.935a.844.844,0,0,1-.577-.549A1.449,1.449,0,0,1,1.228-2.357Zm0,0" transform="translate(-1.167 14.575)" fill="#fff"/>
        </g>
      </g>
      <g id="Group_312" data-name="Group 312" transform="translate(129.869 23.082)">
        <g id="Group_311" data-name="Group 311" transform="translate(0 0)">
          <path id="Path_255" data-name="Path 255" d="M1.287-2.266l4.28-11.813q.153-.407,2.084.3t1.774,1.112L6.046-3.364,8.974-2.308c.225.084.282.444.169,1.07-.084.3-.183.6-.3.9s-.225.62-.366.929c-.331.57-.605.817-.831.732L1.78-.8a.853.853,0,0,1-.535-.591A1.428,1.428,0,0,1,1.287-2.266Zm0,0" transform="translate(-1.195 14.228)" fill="#fff"/>
        </g>
      </g>
      <g id="Group_314" data-name="Group 314" transform="translate(140.628 25.856)">
        <g id="Group_313" data-name="Group 313" transform="translate(0 0)">
          <path id="Path_256" data-name="Path 256" d="M13.29-10.446c.338-.366,1.214-.232,2.633.394q.533.243,1.225.634c.458.264.662.422.605.479L10.474-2.913,8.46,1.592c-.1.2-.5.2-1.225-.014A8.747,8.747,0,0,1,6.193,1.2,8.393,8.393,0,0,1,5.222.705c-.641-.387-.908-.69-.8-.915L6.376-4.6,5.87-14.177c-.021-.092.268-.049.859.127a12.518,12.518,0,0,1,1.45.521c1.521.676,2.253,1.274,2.2,1.788l-.338,4.351Zm0,0" transform="translate(-4.397 14.224)" fill="#fff"/>
        </g>
      </g>
      <g id="Group_315" data-name="Group 315" transform="translate(0 45.591)" clip-path="url(#clip-path)">
        <path id="Path_257" data-name="Path 257" d="M-13.454,60.322A.427.427,0,0,0-13.982,60a.439.439,0,0,0-.324.324c-.771,2.879-2.672,8.194-6.853,11.45a24.011,24.011,0,0,1-9.923,4.548.438.438,0,0,0-.348.514.45.45,0,0,0,.313.338c2.936.817,8.032,2.6,10.616,5.642,2.045,2.4,3.861,8.413,4.653,11.352a.44.44,0,0,0,.542.3.426.426,0,0,0,.3-.3c.817-2.988,2.932-9.169,6.888-11.8a30.909,30.909,0,0,1,9.69-4.055.436.436,0,0,0,.313-.542.4.4,0,0,0-.289-.3c-2.682-.792-7.67-2.58-9.715-5.255A32.658,32.658,0,0,1-13.454,60.322ZM8.778,84.986a.265.265,0,0,0-.324-.194.254.254,0,0,0-.19.194c-.472,1.763-1.637,5.016-4.2,7a14.566,14.566,0,0,1-6.072,2.77.256.256,0,0,0-.2.313.284.284,0,0,0,.194.2c1.792.5,4.917,1.584,6.494,3.442,1.25,1.464,2.355,5.15,2.848,6.952a.27.27,0,0,0,.324.19.277.277,0,0,0,.194-.19c.5-1.827,1.792-5.607,4.21-7.216a18.951,18.951,0,0,1,5.928-2.482.264.264,0,0,0,.19-.324.258.258,0,0,0-.18-.194c-1.647-.493-4.689-1.573-5.938-3.217A19.5,19.5,0,0,1,8.778,84.986ZM17.57,64.919a.181.181,0,0,0-.218-.134.174.174,0,0,0-.13.134,8.829,8.829,0,0,1-2.791,4.643A9.812,9.812,0,0,1,10.4,71.41a.182.182,0,0,0-.144.2.153.153,0,0,0,.13.134,9.438,9.438,0,0,1,4.319,2.291A15.2,15.2,0,0,1,16.6,78.647a.169.169,0,0,0,.215.12.159.159,0,0,0,.123-.12c.334-1.211,1.19-3.721,2.8-4.787a12.3,12.3,0,0,1,3.946-1.644A.184.184,0,0,0,23.811,72a.2.2,0,0,0-.123-.13c-1.095-.324-3.112-1.045-3.942-2.137A13.081,13.081,0,0,1,17.57,64.919Zm0,0" transform="translate(-9.865 -59.935)" fill="#f8ae08"/>
      </g>
      <g id="Group_316" data-name="Group 316" transform="translate(154.666 45.591)" clip-path="url(#clip-path-2)">
        <path id="Path_259" data-name="Path 259" d="M158.182,60.322a.427.427,0,0,0-.528-.324.439.439,0,0,0-.324.324c-.771,2.879-2.672,8.194-6.853,11.45a24.011,24.011,0,0,1-9.923,4.548.438.438,0,0,0-.348.514.456.456,0,0,0,.313.338c2.936.817,8.032,2.6,10.62,5.642,2.042,2.4,3.858,8.413,4.653,11.352a.434.434,0,0,0,.539.3.426.426,0,0,0,.3-.3c.817-2.988,2.932-9.169,6.888-11.8a30.909,30.909,0,0,1,9.69-4.055.436.436,0,0,0,.313-.542.4.4,0,0,0-.289-.3c-2.682-.792-7.67-2.58-9.715-5.255A32.659,32.659,0,0,1,158.182,60.322Zm22.235,24.664a.271.271,0,0,0-.327-.194.26.26,0,0,0-.19.194c-.472,1.763-1.637,5.016-4.2,7a14.566,14.566,0,0,1-6.072,2.77.256.256,0,0,0-.2.313.284.284,0,0,0,.194.2c1.792.5,4.917,1.584,6.494,3.442,1.25,1.464,2.355,5.15,2.848,6.952a.27.27,0,0,0,.324.19.277.277,0,0,0,.194-.19c.507-1.827,1.792-5.607,4.21-7.216a18.951,18.951,0,0,1,5.928-2.482.264.264,0,0,0,.19-.324.258.258,0,0,0-.18-.194c-1.647-.493-4.689-1.573-5.938-3.217A19.42,19.42,0,0,1,180.418,84.986Zm8.789-20.067a.179.179,0,0,0-.218-.134.174.174,0,0,0-.13.134,8.83,8.83,0,0,1-2.791,4.643,9.812,9.812,0,0,1-4.027,1.848.182.182,0,0,0-.144.2.153.153,0,0,0,.13.134,9.421,9.421,0,0,1,4.319,2.291,15.2,15.2,0,0,1,1.887,4.608.169.169,0,0,0,.215.12.154.154,0,0,0,.123-.12c.334-1.211,1.19-3.721,2.8-4.787a12.261,12.261,0,0,1,3.942-1.644.184.184,0,0,0,.134-.218.19.19,0,0,0-.123-.13c-1.091-.324-3.112-1.045-3.942-2.137A13.08,13.08,0,0,1,189.207,64.919Zm0,0" transform="translate(-181.505 -59.935)" fill="#f8ae08"/>
      </g>
      <g id="Group_317" data-name="Group 317" transform="translate(77.136 57.369)" clip-path="url(#clip-path-3)">
        <path id="Path_261" data-name="Path 261" d="M101.93,110.844l23.429,12.3a1.857,1.857,0,0,0,2.5-.774l17.621-33.418a1.852,1.852,0,0,0-.778-2.5l-23.429-12.3a1.856,1.856,0,0,0-2.5.781l-17.621,33.415a1.843,1.843,0,0,0,.778,2.5" transform="translate(-100.093 -73.093)" fill="#e7c884"/>
      </g>
      <path id="Path_263" data-name="Path 263" d="M106.168,108.465l20.014,10.5L141.5,89.922l-20.014-10.5-15.315,29.043" transform="translate(-23.474 -16.266)" fill="#ef2b65"/>
      <path id="Path_264" data-name="Path 264" d="M131.617,110.722l-5.435,10.3-20.014-10.5,5.435-10.31,20.014,10.507" transform="translate(-23.474 -18.323)" fill="#d82064"/>
      <path id="Path_265" data-name="Path 265" d="M132.108,111.546a.947.947,0,0,1-.433-.106l-20.014-10.5a.927.927,0,1,1,.866-1.64l20.018,10.5a.928.928,0,0,1-.436,1.749" transform="translate(-23.968 -18.221)" fill="#682e38"/>
      <path id="Path_266" data-name="Path 266" d="M90.96,112.767l25.9,5.47a1.854,1.854,0,0,0,2.2-1.429l7.839-36.938a1.855,1.855,0,0,0-1.433-2.193l-25.9-5.466a1.85,1.85,0,0,0-2.2,1.426l-7.839,36.938a1.849,1.849,0,0,0,1.429,2.193" transform="translate(-21.825 -15.549)" fill="#ecd494"/>
      <path id="Path_267" data-name="Path 267" d="M94.211,109.456l22.123,4.671,6.815-32.105-22.126-4.674-6.811,32.109" transform="translate(-22.292 -16.061)" fill="#f9ab10"/>
      <path id="Path_268" data-name="Path 268" d="M118.751,105.014,116.333,116.4l-22.126-4.674,2.418-11.387,22.126,4.674" transform="translate(-22.291 -18.335)" fill="#ef8817"/>
      <path id="Path_269" data-name="Path 269" d="M118.915,105.842a.911.911,0,0,1-.194-.025L96.6,101.146a.928.928,0,1,1,.384-1.816L119.1,104a.929.929,0,0,1-.19,1.837" transform="translate(-22.455 -18.233)" fill="#682e38"/>
      <path id="Path_270" data-name="Path 270" d="M82.853,117.45l26.459-.869a1.852,1.852,0,0,0,1.788-1.911l-1.239-37.734a1.86,1.86,0,0,0-1.915-1.792l-26.459.869A1.852,1.852,0,0,0,79.7,77.925l1.239,37.734a1.856,1.856,0,0,0,1.915,1.792" transform="translate(-20.856 -15.843)" fill="#f3e2ae"/>
      <path id="Path_271" data-name="Path 271" d="M85.061,113.553l22.6-.743-1.084-32.8-22.6.743,1.081,32.8" transform="translate(-21.28 -16.325)" fill="#5f639e"/>
      <path id="Path_272" data-name="Path 272" d="M107.743,115.133l-22.6.746-.384-11.637,22.6-.743.387,11.633" transform="translate(-21.356 -18.648)" fill="#525985"/>
      <path id="Path_273" data-name="Path 273" d="M84.655,105.066a.928.928,0,0,1-.032-1.855l22.6-.743a.93.93,0,0,1,.06,1.859l-22.6.739h-.028" transform="translate(-21.254 -18.546)" fill="#682e38"/>
      <g id="Group_318" data-name="Group 318" transform="translate(45.97 60.973)" clip-path="url(#clip-path-4)">
        <path id="Path_274" data-name="Path 274" d="M77.511,124.48l25.674-6.441a1.845,1.845,0,0,0,1.345-2.242L95.3,79.178a1.851,1.851,0,0,0-2.249-1.345L67.381,84.272a1.853,1.853,0,0,0-1.348,2.246l9.229,36.618a1.858,1.858,0,0,0,2.249,1.345" transform="translate(-65.47 -77.077)" fill="#f8eac5"/>
      </g>
      <path id="Path_276" data-name="Path 276" d="M78.8,120.344l21.929-5.5L92.714,83.012,70.781,88.517,78.8,120.344" transform="translate(-19.975 -16.621)" fill="#56bd81"/>
      <path id="Path_277" data-name="Path 277" d="M101.3,117.1l-21.929,5.5L76.527,111.3l21.933-5.495L101.3,117.1" transform="translate(-20.543 -18.876)" fill="#4c8d66"/>
      <path id="Path_278" data-name="Path 278" d="M76.425,112.134a.929.929,0,0,1-.229-1.83l21.933-5.5a.929.929,0,1,1,.454,1.8L76.65,112.1a.848.848,0,0,1-.225.032" transform="translate(-20.441 -18.774)" fill="#682e38"/>
      <g id="Group_320" data-name="Group 320" transform="translate(44.113 37.205)">
        <g id="Group_319" data-name="Group 319" transform="translate(0 0)">
          <path id="Path_279" data-name="Path 279" d="M3.12-17.246a7.477,7.477,0,0,1,2.619-.211q1.193.143,1.352.831a3.987,3.987,0,0,1-.113,1.83q-.269,1.14-.634,1.225a.444.444,0,0,1-.253-.056,1.6,1.6,0,0,0-.634-.1,3.654,3.654,0,0,0-.817.056,2.419,2.419,0,0,0-1.647,1.253A3.783,3.783,0,0,0,2.88-9.784,3.676,3.676,0,0,0,4.19-7.489,2.388,2.388,0,0,0,6.2-7.123a3.936,3.936,0,0,0,.972-.366,1.8,1.8,0,0,0,.7-.549.289.289,0,0,1,.155-.084c.074-.018.257.1.549.352a5.1,5.1,0,0,1,.873,1.014A3.674,3.674,0,0,1,10-5.729q.18.76-.887,1.507A8.1,8.1,0,0,1,6.428-3.1a5.7,5.7,0,0,1-4.717-.8A7.607,7.607,0,0,1-1.175-8.672,7.7,7.7,0,0,1-.71-14.318,5.691,5.691,0,0,1,3.12-17.246Zm0,0" transform="translate(1.486 17.496)" fill="#fff"/>
        </g>
      </g>
      <g id="Group_322" data-name="Group 322" transform="translate(54.455 34.752)">
        <g id="Group_321" data-name="Group 321" transform="translate(0)">
          <path id="Path_280" data-name="Path 280" d="M5.239-16.459q-.058-.407,2.112-.746t2.225.056l1.436,9.166a4.253,4.253,0,0,1-.943,3.548,6,6,0,0,1-3.83,1.929A6.388,6.388,0,0,1,1.86-3.2,4.467,4.467,0,0,1-.308-6.533l-1.38-8.842q-.069-.407,2.1-.746t2.253.07L4.071-7.04a.717.717,0,0,0,.507.577,1.88,1.88,0,0,0,.943.1,1.9,1.9,0,0,0,.831-.352.742.742,0,0,0,.31-.718Zm0,0" transform="translate(1.69 17.367)" fill="#fff"/>
        </g>
      </g>
      <g id="Group_324" data-name="Group 324" transform="translate(68.043 33.971)">
        <g id="Group_323" data-name="Group 323" transform="translate(0 0)">
          <path id="Path_281" data-name="Path 281" d="M4.848-2.23q.011.327-1.9.465Q1.014-1.623,1-1.935L.046-15.071c-.039-.468.19-.722.69-.76l3.844-.282q5.306-.38,5.6,3.745a5.1,5.1,0,0,1-.324,2.309,3.946,3.946,0,0,1-1.253,1.7L11.465-4.3a2.651,2.651,0,0,1-.972,1.183A3.684,3.684,0,0,1,8.565-2.089a1.289,1.289,0,0,1-1.2-.493L5.143-6.848l-.634.042Zm-.76-10.264.225,3.013.1-.014q1.927-.137,1.816-1.718a1.433,1.433,0,0,0-.465-1.056,1.749,1.749,0,0,0-1.253-.253Zm0,0" transform="translate(-0.042 16.145)" fill="#fff"/>
        </g>
      </g>
      <g id="Group_326" data-name="Group 326" transform="translate(79.679 33.582)">
        <g id="Group_325" data-name="Group 325" transform="translate(0 0)">
          <path id="Path_282" data-name="Path 282" d="M10.552-1.388c-1.176-.011-1.809-.2-1.9-.577L8.017-4.6l-3.21-.028-.62,2.492c-.084.422-.732.627-1.943.62A7,7,0,0,1,.808-1.642C.5-1.726.344-1.786.344-1.825L4.075-15.468a8.574,8.574,0,0,1,2.76-.127,8.818,8.818,0,0,1,2.774.2L12.959-1.67c0,.1-.317.162-.943.211A13.9,13.9,0,0,1,10.552-1.388Zm-5.209-5.8,2.126.028-.873-4.2H6.468Zm0,0" transform="translate(-0.344 15.603)" fill="#fff"/>
        </g>
      </g>
      <g id="Group_328" data-name="Group 328" transform="translate(93.304 33.79)">
        <g id="Group_327" data-name="Group 327" transform="translate(0 0)">
          <path id="Path_283" data-name="Path 283" d="M7.227-1.231c-.028.271-.711.345-2.042.225s-1.971-.306-1.943-.577l.9-10.109-2.422-.225c-.225-.018-.359-.341-.394-.972a7.127,7.127,0,0,1,.028-.9,6.774,6.774,0,0,1,.141-.9c.148-.609.338-.9.563-.887l8.758.788c.225.021.359.345.408.972a7.828,7.828,0,0,1-.028.9,7.3,7.3,0,0,1-.141.9c-.162.612-.352.908-.577.887L8.128-11.34Zm0,0" transform="translate(-1.324 15.579)" fill="#fff"/>
        </g>
      </g>
      <g id="Group_330" data-name="Group 330" transform="translate(102.881 34.92)">
        <g id="Group_329" data-name="Group 329" transform="translate(0 0)">
          <path id="Path_284" data-name="Path 284" d="M8.933-8.762c.253.039.31.528.169,1.464a7.568,7.568,0,0,1-.253.986c-.123.366-.264.542-.422.521L5.892-6.2l-.31,1.985,3.661.577c.232.039.345.352.338.943a5.156,5.156,0,0,1-.07.831,7.912,7.912,0,0,1-.3,1.084c-.151.44-.324.648-.521.62L1.865-1.229c-.5-.084-.715-.331-.648-.746L3.245-14.816c.056-.345.239-.5.549-.451l7.138,1.126c.282.049.327.662.141,1.844s-.422,1.739-.7,1.69L6.68-11.183,6.357-9.17Zm0,0" transform="translate(-1.206 15.274)" fill="#fff"/>
        </g>
      </g>
      <g id="Group_332" data-name="Group 332" transform="translate(112.342 36.744)">
        <g id="Group_331" data-name="Group 331" transform="translate(0)">
          <path id="Path_285" data-name="Path 285" d="M1.324-2.128,4.112-13.941a1.163,1.163,0,0,1,.422-.718.827.827,0,0,1,.69-.141l3.295.774a6.814,6.814,0,0,1,4.393,2.7q1.251,1.959.451,5.336Q11.657,1.248,5.492-.2L2.113-1C1.444-1.153,1.183-1.526,1.324-2.128Zm5.942-8.237L5.872-4.493a1.574,1.574,0,0,0-.056.535c.018.084.127.151.324.2a1.921,1.921,0,0,0,1.83-.422,4.914,4.914,0,0,0,1.2-2.548,3.67,3.67,0,0,0,0-2.591,2.655,2.655,0,0,0-1.718-1Zm0,0" transform="translate(-1.287 14.822)" fill="#fff"/>
        </g>
      </g>
      <g id="Group_334" data-name="Group 334" transform="translate(39.253 5.771)">
        <g id="Group_333" data-name="Group 333" transform="translate(0)">
          <path id="Path_286" data-name="Path 286" d="M3.118-3.775,2.78-4.985c-.028-.092.035-.172.2-.239A3.5,3.5,0,0,1,3.4-5.394l.366-.07c.232-.035.366-.007.394.084l.76,2.816a2.209,2.209,0,0,1-.634.451,5.542,5.542,0,0,1-1.2.479A2.859,2.859,0,0,1,.753-1.86,3.6,3.6,0,0,1-.754-4.113a3.264,3.264,0,0,1,.127-2.45,2.883,2.883,0,0,1,1.9-1.492,5.257,5.257,0,0,1,1.155-.211,1.328,1.328,0,0,1,.774.127c.018.049.046.137.084.268a1.951,1.951,0,0,1,.028.591,1.879,1.879,0,0,1-.141.634c-.077.151-.137.236-.183.253a.333.333,0,0,1-.183-.028,1.219,1.219,0,0,0-.38-.042,1.818,1.818,0,0,0-.507.07,1.273,1.273,0,0,0-.788.605,1.586,1.586,0,0,0-.028,1.2,1.764,1.764,0,0,0,.69,1.042,1.114,1.114,0,0,0,.915.155C3.02-3.486,3.153-3.613,3.118-3.775Zm0,0" transform="translate(0.93 8.27)" fill="#f8eac5"/>
        </g>
      </g>
      <g id="Group_336" data-name="Group 336" transform="translate(45.616 4.368)">
        <g id="Group_335" data-name="Group 335">
          <path id="Path_287" data-name="Path 287" d="M4.7-1.953c-.528.134-.827.123-.9-.028L3.194-3.066l-1.436.352.028,1.183c.007.19-.253.352-.788.493a4.2,4.2,0,0,1-.662.113C.2-.925.125-.932.125-.954l.07-6.5a4.288,4.288,0,0,1,1.211-.366,4.424,4.424,0,0,1,1.253-.239L5.743-2.347c.007.049-.127.12-.408.211S4.849-1.988,4.7-1.953ZM1.716-3.924l.943-.239-.873-1.76L1.73-5.91Zm0,0" transform="translate(-0.125 8.076)" fill="#f8eac5"/>
        </g>
      </g>
      <g id="Group_338" data-name="Group 338" transform="translate(50.682 2.447)">
        <g id="Group_337" data-name="Group 337" transform="translate(0)">
          <path id="Path_288" data-name="Path 288" d="M6.767-2.187q-.8.158-.845-.042l-.915-3.6-.38,3.928c0,.077-.2.155-.591.239s-.605.077-.634,0L1.529-5.172,2.12-1.511c.007.084-.1.169-.324.253a5.537,5.537,0,0,1-.549.169,3.334,3.334,0,0,1-.422.056c-.31.011-.472-.042-.479-.155L-.625-7.143c-.028-.141.334-.285,1.084-.436.2-.035.472-.07.8-.1s.521-.014.577.07L3.416-4.933,3.74-7.988c.018-.169.415-.327,1.2-.479a7.4,7.4,0,0,1,.817-.113c.327-.028.5,0,.521.084L7.7-2.581c.018.067-.092.141-.324.225A4.781,4.781,0,0,1,6.767-2.187Zm0,0" transform="translate(0.627 8.59)" fill="#f8eac5"/>
        </g>
      </g>
      <g id="Group_340" data-name="Group 340" transform="translate(58.888 1.593)">
        <g id="Group_339" data-name="Group 339" transform="translate(0)">
          <path id="Path_289" data-name="Path 289" d="M2.791-5.164c.12-.018.215.19.282.62a3.43,3.43,0,0,1,.028.451c0,.169-.039.264-.113.282l-1.169.169.141.915,1.69-.253c.113-.018.2.109.282.38a2.663,2.663,0,0,1,.084.366,3.336,3.336,0,0,1,.014.521c0,.218-.049.331-.141.338L.749-.9C.524-.859.4-.933.369-1.123l-.9-5.9c-.028-.158.025-.246.155-.268L2.917-7.8c.13-.018.239.246.324.788s.06.813-.07.831l-1.7.253L1.608-5Zm0,0" transform="translate(0.539 7.798)" fill="#f8eac5"/>
        </g>
      </g>
      <g id="Group_342" data-name="Group 342" transform="translate(63.64 1.049)">
        <g id="Group_341" data-name="Group 341" transform="translate(0)">
          <path id="Path_290" data-name="Path 290" d="M.419-3.093a6.2,6.2,0,0,0,.648.31,1.726,1.726,0,0,0,.845.141c.26-.035.38-.155.352-.352a.3.3,0,0,0-.141-.225,1.62,1.62,0,0,0-.436-.2q-.312-.111-.465-.169a2.906,2.906,0,0,1-.422-.2,1.6,1.6,0,0,1-.408-.338,2.263,2.263,0,0,1-.549-1.3A1.814,1.814,0,0,1,.279-6.853,2.282,2.282,0,0,1,1.8-7.6a5.057,5.057,0,0,1,1.239-.014c.384.049.595.151.634.31a.1.1,0,0,0,.014.056,2.526,2.526,0,0,1-.113.831,1.623,1.623,0,0,1-.225.577,2.449,2.449,0,0,0-1.084-.169q-.465.058-.422.38c.007.141.134.25.38.324q.084.032.211.084c.092.028.2.067.338.113a2.774,2.774,0,0,1,.422.169,4.041,4.041,0,0,1,.493.31,1.55,1.55,0,0,1,.634,1.14A2.353,2.353,0,0,1,3.968-1.8a2.194,2.194,0,0,1-1.591.859,5.2,5.2,0,0,1-1.014.014,1.839,1.839,0,0,1-.817-.268.81.81,0,0,1-.422-.591A2.154,2.154,0,0,1,.18-2.558,1.169,1.169,0,0,1,.419-3.093Zm0,0" transform="translate(0.172 7.644)" fill="#f8eac5"/>
        </g>
      </g>
      <g id="Group_344" data-name="Group 344" transform="translate(70.216 0.403)">
        <g id="Group_343" data-name="Group 343" transform="translate(0 0)">
          <path id="Path_291" data-name="Path 291" d="M3.4-7.531c.113-.007.187.26.225.8s.014.824-.1.831l-1.675.141L1.935-4.7l1.112-.1q.153-.011.211.718c.035.479.007.725-.084.732l-1.126.1.169,2.211q.011.143-.338.211c-.225.039-.415.067-.563.084H.865C.562-.752.407-.8.4-.886L-.078-7.01c-.007-.1.007-.169.042-.2a.317.317,0,0,1,.183-.07Zm0,0" transform="translate(0.08 7.531)" fill="#f8eac5"/>
        </g>
      </g>
      <g id="Group_346" data-name="Group 346" transform="translate(74.732 0.236)">
        <g id="Group_345" data-name="Group 345" transform="translate(0 0)">
          <path id="Path_292" data-name="Path 292" d="M2.259-.951c0,.1-.3.155-.887.183S.485-.785.485-.88L.2-6.92c-.011-.215.1-.327.324-.338L2.3-7.329q2.45-.111,2.534,1.788a2.307,2.307,0,0,1-.183,1.056,1.951,1.951,0,0,1-.591.774L5.314-1.824a1.184,1.184,0,0,1-.451.535,1.747,1.747,0,0,1-.915.436A.625.625,0,0,1,3.4-1.077l-.957-2-.282.014ZM2.033-5.681,2.1-4.288h.042c.591-.028.873-.285.845-.774a.666.666,0,0,0-.2-.493A.83.83,0,0,0,2.231-5.7Zm0,0" transform="translate(-0.202 7.335)" fill="#f8eac5"/>
        </g>
      </g>
      <g id="Group_348" data-name="Group 348" transform="translate(80.146 0)">
        <g id="Group_347" data-name="Group 347" transform="translate(0 0)">
          <path id="Path_293" data-name="Path 293" d="M3.252-.653a2.832,2.832,0,0,1-2.14-.831A3.5,3.5,0,0,1,.281-3.976,3.426,3.426,0,0,1,1.1-6.454a2.853,2.853,0,0,1,2.14-.859A2.819,2.819,0,0,1,5.364-6.5,3.424,3.424,0,0,1,6.181-3.99a3.414,3.414,0,0,1-.8,2.506A2.842,2.842,0,0,1,3.252-.653ZM3.224-5.538a.912.912,0,0,0-.746.408,1.951,1.951,0,0,0-.3,1.155,1.943,1.943,0,0,0,.3,1.126.908.908,0,0,0,.76.394A.94.94,0,0,0,4-2.863,1.864,1.864,0,0,0,4.28-4a1.833,1.833,0,0,0-.31-1.14A.863.863,0,0,0,3.224-5.538Zm0,0" transform="translate(-0.281 7.313)" fill="#f8eac5"/>
        </g>
      </g>
      <g id="Group_350" data-name="Group 350" transform="translate(86.671 0.093)">
        <g id="Group_349" data-name="Group 349" transform="translate(0)">
          <path id="Path_294" data-name="Path 294" d="M7.008-.4c-.546-.021-.813-.1-.8-.225L6.163-4.352,4.853-.621q-.032.111-.634.084c-.394-.021-.6-.067-.605-.141l-1-3.858-.282,3.7q-.032.127-.38.169a3.356,3.356,0,0,1-.563.028c-.151-.011-.3-.025-.436-.042C.651-.741.51-.832.531-.945L1-6.957C1-7.1,1.39-7.161,2.15-7.126q.322.016.8.084c.327.049.507.123.535.225L4.4-3.86,5.431-6.746c.063-.158.5-.218,1.3-.183q.338.016.8.084t.465.211L8.007-.551c-.011.063-.134.106-.366.127A4.057,4.057,0,0,1,7.008-.4Zm0,0" transform="translate(-0.529 7.136)" fill="#f8eac5"/>
        </g>
      </g>
      <g id="Group_352" data-name="Group 352" transform="translate(96.594 0.65)">
        <g id="Group_351" data-name="Group 351" transform="translate(0)">
          <path id="Path_295" data-name="Path 295" d="M1.315-.561C.752-.617.474-.705.484-.829L1.09-6.812a.269.269,0,0,1,.324-.282l1.619.169a2.8,2.8,0,0,1,1.915.76,2.135,2.135,0,0,1,.436,1.7A2.608,2.608,0,0,1,4.652-2.9a2.013,2.013,0,0,1-.9.507,3.427,3.427,0,0,1-1.309.1L2.272-.66c0,.074-.123.113-.366.113A4.368,4.368,0,0,1,1.315-.561ZM2.751-5.334,2.6-3.884l.113.014a.771.771,0,0,0,.563-.155.693.693,0,0,0,.282-.535.711.711,0,0,0-.1-.535.709.709,0,0,0-.521-.225Zm0,0" transform="translate(-0.484 7.096)" fill="#f8eac5"/>
        </g>
      </g>
      <g id="Group_354" data-name="Group 354" transform="translate(101.818 1.215)">
        <g id="Group_353" data-name="Group 353" transform="translate(0)">
          <path id="Path_296" data-name="Path 296" d="M4.026-4.119c.12.011.155.232.1.662a3.127,3.127,0,0,1-.113.465c-.049.169-.109.25-.183.239L2.66-2.922l-.127.915,1.675.239c.113.011.169.155.169.436a1.984,1.984,0,0,1-.014.38,4.267,4.267,0,0,1-.127.493c-.067.2-.148.3-.239.3L.858-.585C.632-.623.534-.732.562-.922L1.35-6.836c.018-.158.1-.229.239-.211L4.87-6.6q.2.032.084.845c-.067.535-.165.8-.3.774L2.97-5.217l-.127.929Zm0,0" transform="translate(-0.557 7.05)" fill="#f8eac5"/>
        </g>
      </g>
      <g id="Group_356" data-name="Group 356" transform="translate(106.908 1.844)">
        <g id="Group_355" data-name="Group 355">
          <path id="Path_297" data-name="Path 297" d="M1.3-6.971c0-.028.134-.028.408,0s.493.042.662.07c.676.113,1.014.26,1.014.436l.113,4.154,1.422-3.9c.056-.158.444-.176,1.169-.056.176.028.4.077.662.141s.4.12.394.155L4.507-.2c-.049.092-.239.13-.577.113A7.782,7.782,0,0,1,2.494-.311c-.415-.106-.627-.2-.634-.282Zm0,0" transform="translate(-1.297 6.992)" fill="#f8eac5"/>
        </g>
      </g>
      <g id="Group_358" data-name="Group 358" transform="translate(111.827 3.23)">
        <g id="Group_357" data-name="Group 357" transform="translate(0)">
          <path id="Path_298" data-name="Path 298" d="M4.749.364c-.535-.113-.8-.26-.8-.436L3.876-1.3,2.44-1.607,1.933-.537c-.077.176-.387.211-.929.1a3.188,3.188,0,0,1-.634-.2C.237-.692.177-.727.187-.748l2.9-5.8a3.676,3.676,0,0,1,1.267.183c.824.18,1.228.3,1.211.352L5.847.449C5.837.494,5.685.5,5.4.463A5.169,5.169,0,0,1,4.749.364ZM2.919-2.719l.957.211L3.848-4.465l-.042-.014Zm0,0" transform="translate(-0.186 6.569)" fill="#f8eac5"/>
        </g>
      </g>
      <g id="Group_360" data-name="Group 360" transform="translate(117.971 4.269)">
        <g id="Group_359" data-name="Group 359" transform="translate(0 0)">
          <path id="Path_299" data-name="Path 299" d="M5.475.5c-.028.12-.324.113-.887-.028S3.732.2,3.715.089l-.8-3.168-.7,2.788c-.028.113-.32.1-.873-.042S.518-.6.547-.713L2.067-6.725c.028-.092.275-.077.746.042a6.048,6.048,0,0,1,.634.211c.243.1.384.2.422.31l.746,3.126.718-2.816c.028-.113.317-.1.873.042s.817.268.788.38Zm0,0" transform="translate(-0.545 6.785)" fill="#f8eac5"/>
        </g>
      </g>
      <g id="Group_362" data-name="Group 362" transform="translate(123.698 6.157)">
        <g id="Group_361" data-name="Group 361" transform="translate(0 0)">
          <path id="Path_300" data-name="Path 300" d="M1.365-2.6a6.185,6.185,0,0,0,.479.535,1.715,1.715,0,0,0,.732.465q.38.116.465-.169A.3.3,0,0,0,3-2.032,2.106,2.106,0,0,0,2.674-2.4c-.162-.148-.282-.26-.366-.338A3.862,3.862,0,0,1,2-3.088a1.2,1.2,0,0,1-.239-.479,2.273,2.273,0,0,1,.014-1.394A1.786,1.786,0,0,1,2.731-6.1a2.283,2.283,0,0,1,1.675-.1,5.2,5.2,0,0,1,1.155.493c.338.19.493.363.465.521a.121.121,0,0,0-.014.056,2.445,2.445,0,0,1-.436.732,1.8,1.8,0,0,1-.408.436,2.384,2.384,0,0,0-.943-.591c-.3-.092-.486-.032-.549.183-.039.141.035.292.225.451a1.884,1.884,0,0,1,.169.169c.074.067.162.148.268.239a3.683,3.683,0,0,1,.324.31,2.352,2.352,0,0,1,.324.479,1.585,1.585,0,0,1,.141,1.309A2.409,2.409,0,0,1,4.139,0,2.222,2.222,0,0,1,2.322.15a4.787,4.787,0,0,1-.943-.38A2.052,2.052,0,0,1,.731-.807.827.827,0,0,1,.59-1.525,2.07,2.07,0,0,1,.942-2.2,1.13,1.13,0,0,1,1.365-2.6Zm0,0" transform="translate(-0.561 6.311)" fill="#f8eac5"/>
        </g>
      </g>
    </g>
  </g>
</svg>
